<svg xmlns="http://www.w3.org/2000/svg" width="1920.01" height="1080.04" viewBox="0 0 1920.01 1080.04">
  <g id="background_grafismos_roxo" transform="translate(0 0.02)">
    <path id="Caminho_57" data-name="Caminho 57" d="M917,0c-5.7,27.05-11.26,54.13-17.14,81.14-7.83,35.99-25.7,67.06-48.42,95.44-10.7,13.37-22.86,25.57-34.09,38.53-6.53,7.54-13.06,15.17-18.64,23.4-10.48,15.47-13.3,32.53-7.84,50.57a183.423,183.423,0,0,0,7.99,22.59c11.27,24.98,12.25,51.19,10.73,77.91a89.466,89.466,0,0,0,1.5,23.29c3.42,16.22,15.36,21.21,29.7,13.01,11-6.29,21.81-12.88,34.34-15.88,32.01-7.65,61.56-.74,89.17,15.73,27.48,16.39,47.71,40.21,65.62,66.23,12.84,18.65,24.84,37.94,41.27,53.85,14.22,13.78,30.63,23.42,50.29,27.07,22.13,4.11,40.57-2.66,55.11-19.5,8.16-9.44,15.43-19.64,23.17-29.44,12.42-15.74,27.98-28.07,44.1-39.64,26.63-19.11,50.73-40.99,73.83-64.18,21.84-21.92,45.78-41.27,74.13-54.5,22.07-10.3,45.42-16.38,69.18-20.98,33.41-6.47,67.02-11.49,101.2-10.57,37.01,1,69.93,12.76,97.4,38.1,13.71,12.65,26.91,25.84,40.55,38.57,36.06,33.66,78,57.24,124.94,72.05A327.592,327.592,0,0,0,1920,497.97v4c-51.93-1.23-101.3-12.95-147.85-36.15-28.11-14.01-53.09-32.41-75.83-54.05-16.28-15.49-32.46-31.18-49.77-45.46-23.48-19.38-51.59-27.01-81.65-28.43-35.27-1.68-69.84,3.52-104.07,11.01a507,507,0,0,0-55.41,14.94c-25.07,8.56-46.7,23.43-66.1,41.34-19.09,17.63-37.4,36.11-56.8,53.39-12.16,10.83-25.49,20.4-38.65,30.06-21.26,15.6-40.27,33.28-55.05,55.34-6.79,10.14-14.72,19.49-25.53,25.67-19.71,11.28-40.02,9.76-60.22,1.69-21.07-8.42-37.02-23.57-50.51-41.25-13.13-17.22-25.3-35.16-38.16-52.59-18.11-24.52-39.99-44.7-68.29-56.96-25.72-11.14-52.12-13.65-78.89-4.08-6.52,2.33-12.43,6.35-18.72,9.37-4.93,2.37-9.85,5.07-15.08,6.44-10.24,2.68-19.36-1.74-23.2-11.6a58.737,58.737,0,0,1-4.03-18.88c-.41-11.96.41-23.97.63-35.96a111.13,111.13,0,0,0-7.55-42.53c-4.02-10.41-7.95-20.87-11.35-31.5-6.65-20.77-3.61-40.38,9.33-57.87a292.582,292.582,0,0,1,24.22-28.52c22.39-23.33,42.27-48.44,57.35-77.16,10.96-20.86,17.24-43.22,21.8-66.22C904.76,41.28,909.52,20.67,914,0Z" fill="#600860"/>
    <path id="Caminho_59" data-name="Caminho 59" d="M565,1080c9.08-28.13,9.63-57.14,7.41-86.12-2.62-34.2-7.6-68.23-9.81-102.44-2.87-44.36,1.54-87.97,20.58-128.97,10.78-23.21,25.17-44.05,44.59-60.84,21.66-18.74,43.85-36.86,65.99-55.03,45.71-37.5,70.19-86.09,76.28-144.52,4.86-46.65-1.38-92.42-10.66-137.94-3.76-18.44-7.88-36.83-12.69-55.01-4.12-15.56-10.93-30.04-21.52-42.46-14.19-16.64-32.84-24.58-54-27.36-27.2-3.57-54.54-2.28-81.85-1.94-6.16.08-12.32.39-18.48.51-80.51,1.57-160.82,5.55-240.22,20.17-58.09,10.7-114.29,27.5-168.1,52.08-28.64,13.08-57.29,26.23-87.85,34.41C50.2,351.08,25.4,354.67,0,352v-4c23.33,2.68,46.22-.26,68.86-5.67,28.19-6.73,54.79-17.98,80.84-30.31,68.06-32.24,139.56-52.69,213.99-62.91,31.66-4.34,63.5-8.05,95.38-9.9,47.53-2.75,95.16-3.94,142.77-5.11,21.77-.54,43.64-.33,65.35,1.15,19.74,1.34,38.21,7.69,53.37,21.32,14.48,13.01,23.13,29.69,28.42,48a718.756,718.756,0,0,1,25.06,132.89c3.24,34.6,1.32,68.85-7.12,102.67-10.48,42.02-32.93,76.54-65.65,104.48-21.15,18.06-42.86,35.47-64.12,53.4-38.67,32.62-60.5,74.51-68.09,124.24-5.38,35.25-3.42,70.4.41,105.61,3.1,28.47,6.38,56.96,7.94,85.54a179.54,179.54,0,0,1-8.4,66.59C567.67,1080,566.33,1080,565,1080Z" fill="#600860"/>
    <path id="Caminho_60" data-name="Caminho 60" d="M1920,628c-22.48-.14-44.99.31-67.45-.54-36.45-1.38-67.87-15.78-96.54-37.86a1182.855,1182.855,0,0,0-138.7-91.83c-24.55-13.91-49.97-25.57-78.45-28.11-16.21-1.44-32.56-1.82-48.85-1.88-18.47-.07-36.94.56-55.4,1.22-13.48.48-26.96,1.24-40.4,2.36-22.42,1.86-41.13,11.7-56.69,27.68-16.04,16.47-31.89,33.12-47.9,49.63s-32.23,32.81-48.07,49.47a39.563,39.563,0,0,0-7.99,12.43c-2.11,5.33,1.18,8.49,6.81,7.13a54.764,54.764,0,0,0,9.31-3.56c39.23-17.5,79.85-29.92,122.86-33.6,9.13-.78,18.26-1.74,27.41-1.94,32.12-.67,64.25-2.35,96.36.72,48.45,4.63,84.86,28.66,110.73,69.11,12.38,19.36,23.78,39.34,35.3,59.23,17.19,29.67,36.44,57.82,60.5,82.38,33.32,34.01,71.36,60.82,118.29,72.26,16.06,3.91,32.87,5.21,49.42,6.45,16.42,1.23,32.96.89,49.44,1.23v4c-12.64-.41-25.28-.9-37.92-1.21-18.17-.44-36.27-1.28-54.14-5.1-38.37-8.21-71.7-26.35-101.74-51.09-35.87-29.54-63.41-65.83-86.33-105.95-11.98-20.97-24.13-41.87-37.07-62.25a148.366,148.366,0,0,0-39.54-41.95c-19.26-13.65-40.94-21.59-64.2-23-51.92-3.15-103.92-3.97-155.52,4.48-32.78,5.37-63.71,16.85-94,30.17a49.613,49.613,0,0,1-9.33,3.49c-8.63,1.86-14.1-4.25-10.51-12.29a50.325,50.325,0,0,1,9.62-13.8q34.89-36.48,70.21-72.55c10.57-10.86,21.13-21.73,32.03-32.26,16.43-15.86,36.91-22.54,59.12-23.45q56.16-2.31,112.37-3.09c35.98-.46,69.42,9.53,100.7,27.06,51.56,28.89,100.46,61.88,147.36,97.72,30.93,23.63,65.2,35.42,103.93,35.29,18.32-.06,36.64.49,54.96.77C1920,626,1920,627,1920,628Z" fill="#600860"/>
    <path id="Caminho_61" data-name="Caminho 61" d="M1027,0c-1.67,2.43-3.07,5.11-5.05,7.26-15.07,16.46-30.81,32.33-45.26,49.32-18.56,21.82-30.21,47.76-41.12,73.99-9.97,23.99-19.42,48.24-30.34,71.8-6.69,14.44-15.7,27.82-23.72,41.64-3.42,5.91-7.06,11.69-10.44,17.62-21.4,37.47,1.14,86.39,45.31,94.5,13.89,2.55,27.91,5.39,41.17,10.06,31.44,11.07,55.43,32.27,76.01,58.07a292.159,292.159,0,0,0,32.53,35.09c21.62,19.44,48.07,21.88,73.04,7.12a261.428,261.428,0,0,0,35.78-25.39c25.34-21.45,54.07-36.34,85.17-47.22,27.67-9.68,55.68-18.56,82.78-29.65,28.03-11.47,55.17-25.14,82.67-37.91,33.46-15.53,67.28-30.05,103.79-36.96,62.33-11.8,118.41,1.81,167.75,41.9a173.755,173.755,0,0,1,33.38,36.32c13.9,20.13,31.22,36.31,53.02,47.54,30.24,15.58,60.47,31.39,93.61,39.85,13.91,3.55,28.58,4.12,42.9,6.05v4c-32.54-1.19-62.94-10.61-92.18-24.26-14.79-6.9-29.41-14.17-44.08-21.33-23.85-11.64-41.44-30.05-57.21-51.01-41.84-55.59-97.94-82.21-167.49-79.16-33.87,1.48-65.94,11.48-96.86,24.76q-37.635,16.17-74.44,34.26c-35.09,17.29-71.55,30.87-108.69,42.89-23.48,7.6-46.93,15.65-67.91,28.9-13.76,8.69-26.39,19.15-39.57,28.76-8.47,6.18-16.67,12.84-25.61,18.25-32.28,19.53-62.45,16.03-88.89-10.9-12.69-12.93-24.06-27.17-35.92-40.9-24.15-27.96-54.16-45.91-90.47-53.14-6.86-1.37-13.78-2.53-20.56-4.22-39.14-9.75-61-51.86-46.11-89.37a115.348,115.348,0,0,1,12.51-23.82c18.98-26.93,32.8-56.37,44.49-86.98,9.69-25.38,19.68-50.63,33.3-74.27a249.488,249.488,0,0,1,33.65-45.82c9.2-9.87,18.75-19.41,27.98-29.25,2.34-2.5,4.06-5.59,6.07-8.41C1023.67,0,1025.33,0,1027,0Z" fill="#600860"/>
    <path id="Caminho_62" data-name="Caminho 62" d="M473,1080c3.8-6.84,7.87-13.54,11.33-20.54,9.39-18.95,13.89-39.14,14.78-60.21,1.36-32.25-2.63-64.18-5.52-96.19-3.3-36.55-2.74-72.89,7.74-108.51,10.13-34.41,29.26-62.97,56.39-86.15,18.74-16.01,38.14-31.24,56.87-47.26,29.52-25.23,47.62-57.43,56.32-95.06,6.91-29.89,7.06-60.12,3.85-90.42a655.581,655.581,0,0,0-18.87-100.08c-3.8-14.26-9.39-27.78-18.88-39.37-9.04-11.03-20.32-19.1-34.22-22.1-11.3-2.44-23.04-4.25-34.55-4.11-42.46.52-84.94,1.24-127.35,3.24-56.45,2.66-112.54,8.93-167.96,20.55-47.7,10-93.28,26.1-137.68,45.95-27.06,12.1-54.09,24.36-83.2,31.05A204.312,204.312,0,0,1,0,416v-4c36.67,1.63,70.8-8.35,104.14-22.41,31.91-13.46,63.54-27.77,96.11-39.44,49.61-17.77,101.26-27.7,153.59-32.95,41.89-4.2,83.96-6.83,126.02-9.07,30.58-1.63,61.25-1.57,91.88-2.1a106.648,106.648,0,0,1,37.77,6.28c22.58,8.04,37,24.71,44.2,46.59,7.06,21.44,12,43.63,16.84,65.73,6.14,28.03,10.07,56.51,9.93,85.23-.21,44.8-8.7,87.49-36.18,124.49-10.59,14.26-23.27,26.54-36.84,37.89-16.35,13.68-33.02,26.98-49.29,40.75-31.82,26.92-50.35,61.44-58.16,102.13-6.33,32.96-4.58,65.98-1.6,99.06,1.93,21.39,4.34,42.78,5.13,64.22,1.04,28.22-2.57,55.91-14.98,81.79-3.23,6.74-7.02,13.21-10.56,19.8C476.33,1080,474.67,1080,473,1080Z" fill="#600860"/>
    <path id="Caminho_63" data-name="Caminho 63" d="M1542,0c-12.37,19.21-13.71,40.98-15.02,62.89-1.96,32.73-14.9,60.8-37.12,84.77-25.18,27.18-56.8,43.81-91.33,55.43-14.51,4.88-29.43,8.54-44.17,12.77-16.99,4.87-33.24,11.13-45.5,24.7a81.544,81.544,0,0,0-6.96,8.49c-11.83,17.41-28.87,24.62-49.21,24.8-14.48.13-28.98-.97-43.46-.73a141.019,141.019,0,0,0-25.22,2.95,39.786,39.786,0,0,0-21.9,12.35c-9.65,10.73-20.78,19.11-34.14,24.61a36.221,36.221,0,0,0-6.81,4.16c-12.15,8.54-12.38,23.48-.34,32.23,9.24,6.72,19.94,7.75,30.99,7.25,29.16-1.32,55.38-12.49,81.4-24.26q57.84-26.16,115.53-52.65c40.15-18.37,80.22-36.91,120.41-55.21,36.73-16.72,73.65-33.01,113.51-41.05,29.03-5.85,58.14-6.88,87.33-.79,35.96,7.5,64.97,25.79,87.1,55.13,10.93,14.49,21.8,29.06,33.25,43.14,20.34,25.01,47.13,38.9,78.84,42.75,16.82,2.04,33.87,2.23,50.81,3.26v4c-16.12-.97-32.33-1.16-48.33-3.07-29.26-3.48-55.57-14.42-76.31-35.87-9.91-10.25-18.33-21.97-27.05-33.32-10.96-14.25-20.97-29.22-34.82-41.06-25.29-21.62-54.88-32.16-87.67-34.74-41.34-3.25-80.65,5.89-118.52,21.12-33.52,13.48-66.39,28.61-99.34,43.46-44.96,20.26-89.71,41-134.58,61.44-25.92,11.81-51.83,23.68-77.93,35.1-17.3,7.57-35.3,13.24-54.16,15.35-11.11,1.24-22.28,1.49-33.19-1.97-6.41-2.04-11.84-5.41-15.61-11.02-7.44-11.07-5.59-23.27,5.41-31.28,5.88-4.28,12.8-7.09,18.97-11.02,5.71-3.64,12.11-6.99,16.33-12.03,16.86-20.12,39.22-23.18,63.35-22.6,15.95.38,31.98.49,47.88-.68,13.17-.97,24.25-7.72,31.84-18.63,14.18-20.39,33.93-31.78,57.41-38.1,18.16-4.89,36.43-9.68,54.12-16,28.87-10.31,54.8-25.81,76.54-47.78q38.565-38.97,39.66-93.77c.38-19.28,3.75-37.78,14.01-54.52Z" fill="#600860"/>
    <path id="Caminho_64" data-name="Caminho 64" d="M1019,1080c-3.33-9.06-6.68-18.12-9.98-27.2-11.04-30.37-19.2-61.43-20.77-93.83-1.86-38.46,4.05-75.86,18.65-111.52,7.37-18,16.44-35.31,24.8-52.91,10.29-21.65,21.77-42.8,26.13-66.79,5.84-32.18-.43-62.61-12.97-92.15-14.48-34.11-35.18-64.32-59.75-91.74a624.724,624.724,0,0,0-49.17-48.88c-8.11-7.24-18.57-12.47-28.77-16.62-23.35-9.48-44.07-2.93-62.33,13.18-12.97,11.44-21.69,26-29.74,41.06-11.22,21-21.72,42.45-34.16,62.71a350.189,350.189,0,0,1-66.79,79.19c-19.71,17.43-39.79,34.47-59.07,52.37-21.14,19.64-38.43,42.12-45.85,70.75-5.38,20.79-5.28,41.92-2.69,63.05,3.45,28.1,7.82,56.1,10.8,84.25,2.35,22.17,3.09,44.5,4.72,66.75,1.67,22.86.01,45.59-2.04,68.33h-4c4.21-31.7,4.22-63.58,1.2-95.26-3.98-41.77-9.8-83.36-14.61-125.05-3.25-28.21-1.86-55.94,10.28-82.26,10.6-22.97,26.63-41.76,45.3-58.47,22.58-20.22,46.05-39.52,67.74-60.65,32.65-31.79,57.57-69.35,77.49-110.32,6.47-13.31,13.77-26.26,21.47-38.9a88.924,88.924,0,0,1,26.66-27.38c22.18-14.94,45.26-15.22,67.95-2.31a171.707,171.707,0,0,1,31.86,23.86c31.68,29.59,59.61,62.43,81.38,100.11,15.9,27.52,27.48,56.6,30.67,88.6,2.24,22.47-1.79,44.01-10.48,64.47-8.53,20.06-18.13,39.71-27.94,59.19-15.34,30.46-26.84,62.05-31.05,96.06-4.93,39.79-1.73,78.87,10.79,117,5.67,17.25,12.16,34.22,18.28,51.32C1021.67,1080,1020.33,1080,1019,1080Z" fill="#600860"/>
    <path id="Caminho_65" data-name="Caminho 65" d="M0,1067c10.12,2,20.16,4.57,30.36,5.89,19.27,2.5,38.65,1.77,57.81-.99,48.46-6.98,96.99-13.69,145.2-22.14,32.41-5.68,61.37-20.05,85.26-43.28,18.48-17.97,29.7-40.1,31.98-65.59,1.81-20.16,1.34-40.59.74-60.87-.74-25.11-.07-49.97,6.45-74.38,8.03-30.07,25.26-54.01,49.13-73.55,13.01-10.66,26.28-21.06,38.68-32.41,26.68-24.44,38.42-55.9,40.31-91.31,2.01-37.7-4.5-74.39-14.87-110.44-4.37-15.2-11.75-28.7-26.27-36.9a55.508,55.508,0,0,0-27.33-6.95c-12.98-.08-26,.19-38.93,1.14-30.89,2.28-61.79,4.55-92.59,7.73-66.36,6.84-130.7,21.49-191.7,49.55C73.4,522.09,51.72,529.95,30,537.33c-9.44,3.21-19.96,3.21-30,4.67v-4c16.24.08,31.88-3.48,46.78-9.4,21.51-8.54,42.61-18.12,63.92-27.18a508.606,508.606,0,0,1,126.34-35.15c35.41-5.15,71.07-8.74,106.71-12.19,22.03-2.14,44.19-3.45,66.32-3.86,35.09-.65,54.03,12.91,64.31,46.63,10.98,36.04,17.46,72.96,15.47,110.86-2.12,40.55-17.43,74.89-49.06,101.27-14.07,11.73-28.13,23.49-41.96,35.49-21.65,18.78-33.41,43.22-39.61,70.71-4.9,21.67-4.65,43.63-3.81,65.66.86,22.63,1.92,45.3-2.08,67.81-5.7,32-23.21,56.12-49.17,74.84-26.09,18.81-55.76,28.32-87.02,33.16-45.27,7.02-90.56,14.12-136.04,19.52-27.12,3.22-54.61,3.08-81.08-6.17C0,1069,0,1068,0,1067Z" fill="#600860"/>
    <path id="Caminho_66" data-name="Caminho 66" d="M1920,413c-22.17-3.18-43.93-7.97-64.85-16.17-39.97-15.65-73.9-39.46-99.9-73.99-9.02-11.98-17.91-24.05-27.14-35.87-27.18-34.81-63.55-51.27-107.07-54.19-42.54-2.86-82.4,7.58-120.95,23.84-32.84,13.84-65.02,29.27-97.7,43.52-41.09,17.91-82.3,35.63-125.32,48.5-25.05,7.5-50.58,13.4-75.58,21.08-15.72,4.83-30.88,11.53-46.23,17.53-11.24,4.39-22.58,7.98-34.87,7.81-15.34-.21-28.47-5.82-35.55-19.37-15.19-29.06-41.29-43.34-69.85-54.96-17.5-7.12-34.45-15.27-48.89-27.78-17.39-15.06-25.31-34-22.44-56.95,3.18-25.41,13.13-48.8,22.21-72.44,12.59-32.76,32.86-60.39,56.75-85.7,20.78-22.02,38.93-46.04,53.29-72.79a49.671,49.671,0,0,0,2.07-5.06h4c-3.47,6.79-6.6,13.78-10.48,20.33-11.08,18.7-24.44,35.75-39.14,51.72-21.95,23.85-42.91,48.39-56.56,78.21-11.18,24.44-20.77,49.51-27.02,75.66-5.05,21.16-3.03,41.64,13.1,57.74,8.24,8.22,18.24,15.12,28.44,20.82,14.22,7.94,29.35,14.26,44.14,21.15,20.98,9.77,38.7,22.87,50.38,43.73,11.28,20.14,27.46,26.51,49.92,20.51a225.057,225.057,0,0,0,31.42-11.39c23.34-10.17,47.78-16.79,72.34-22.91,49.82-12.42,97.49-30.85,144.49-51.09,39.16-16.86,77.71-35.17,117.01-51.68,36.98-15.54,75.43-25.49,116.1-23.82,38.02,1.57,72.71,12.25,100.26,39.64,10.91,10.85,20.29,23.4,29.36,35.92,18.93,26.12,40.07,49.81,67.64,67.16A247.939,247.939,0,0,0,1919.97,409C1920,410.33,1920,411.67,1920,413Z" fill="#600860"/>
    <path id="Caminho_67" data-name="Caminho 67" d="M352,1080c2.68-2.14,5.18-4.56,8.07-6.37,20.23-12.68,37.31-28.42,49.07-49.51,9.26-16.58,14.11-34.42,15.92-53.23,2.63-27.38-.77-54.56-2.56-81.8-2.14-32.64-.91-64.91,9.42-96.34,9.48-28.86,26.71-52.35,49.55-71.93,17.95-15.39,36.67-29.93,54.06-45.92,25.9-23.81,38.57-54.61,43.44-88.92,5.83-41.1.19-81.46-8.71-121.47-3.25-14.58-7.11-29.22-12.61-43.06-10.06-25.31-30.07-38.43-56.94-39.21-22.77-.66-45.62.53-68.41,1.39-20.13.76-40.26,1.93-60.36,3.36-68.17,4.83-135.69,13.91-200.51,36.59-26.68,9.34-52.44,21.34-78.52,32.38-24.79,10.5-49.88,19.84-76.95,22.4-5.29.52-10.64.45-15.96.64v-4c24.6.76,48.06-4.79,70.61-13.92,25.16-10.19,49.76-21.76,74.93-31.95,48.8-19.77,99.86-30.9,151.85-38.1,45.09-6.24,90.43-9.52,135.9-11.09,20.8-.72,41.61-1.65,62.42-1.74,13.79-.06,27.21,2.75,39.18,10.2,15.68,9.76,24.59,24.65,30.15,41.64,8.48,25.89,13.26,52.63,17.1,79.55a286.04,286.04,0,0,1,1.37,73.25c-5.37,46.6-27.93,83.33-64.44,112.13-12.94,10.21-25.52,20.89-38.16,31.47-30.64,25.63-46.84,59.07-52.89,98.01-3.45,22.21-2.75,44.47-1.45,66.77,1.48,25.42,4.44,50.74,2.61,76.32-3.21,44.95-23.15,79.94-60.58,105.01-3.58,2.4-7.06,4.96-10.58,7.44C356,1080,354,1080,352,1080Z" fill="#600860"/>
    <path id="Caminho_68" data-name="Caminho 68" d="M1920,560c-34.41.64-68.61-1.44-102.45-7.99-30.19-5.84-59.75-13.79-87.74-26.78a120.03,120.03,0,0,1-43.98-34.7c-28.53-36.02-66.84-55.66-110.11-67.45-25.72-7.01-51.94-10.91-78.51-10.69-71.18.6-134.25,23.61-188.32,70.31-18.08,15.62-32.37,34.45-44.98,54.57-12.64,20.18-29.74,35.69-49.26,48.94-14.74,10.01-29.35,20.22-43.7,30.78-26.23,19.3-38.56,45.47-37.91,78.01.42,20.99.43,41.96-4.73,62.6-6.04,24.19-15.29,47.18-24.71,70.17-10.49,25.57-21.19,51.1-30.29,77.17-11.3,32.37-11.47,65.72-4.65,99.15,4.8,23.51,9.82,46.96,14.71,70.45.37,1.78.44,3.63.64,5.45h-3c-4.93-22.96-9.33-46.06-14.91-68.87-11.09-45.33-5.53-89,11.82-131.65,11.24-27.62,23-55.03,34.2-82.67,7.78-19.21,13.82-39.02,16.09-59.68,1.34-12.22,1.29-24.59,1.76-36.9.27-6.99.06-14,.53-20.98,1.88-27.83,16.6-48.56,37.81-64.88,17.01-13.09,35.02-24.9,52.65-37.17,15.38-10.71,27.76-24.21,38.47-39.53,9.81-14.03,19.62-28.19,30.76-41.15,15.29-17.78,34.02-31.83,53.85-44.29a277.939,277.939,0,0,1,120.36-41.6c54.19-5.66,106.22,2.67,156.17,24.6,27.39,12.02,49.41,30.63,68.23,53.38,17.23,20.83,39.35,34.15,64.58,42.76,38.68,13.19,78.37,21.57,119.23,23.72,15.77.83,31.59.63,47.39.9Z" fill="#600860"/>
    <path id="Caminho_69" data-name="Caminho 69" d="M1920,723c-13.44-.98-27.04-.94-40.28-3.13-32.62-5.4-60.42-20.81-78.83-48.27-18.24-27.21-42.62-46.19-69.67-63.13a770.785,770.785,0,0,0-164.33-78.2c-35.08-11.78-70.63-22.05-107.5-26.71-19.5-2.46-38.9-2.18-57.9,3.7a86.445,86.445,0,0,0-28.42,15.34,62.9,62.9,0,0,1-5.85,3.71c.47.8.94,1.6,1.42,2.4,6.69.76,13.37,1.54,20.06,2.28,34.76,3.87,69.55,7.43,104.26,11.67,32.32,3.95,60.33,18.18,85.85,37.85,42.55,32.8,82.8,68.23,119.89,107.1,19.07,19.99,37.03,41.04,55.44,61.67,20.57,23.04,41.57,45.6,68.86,61.03,19.54,11.04,40.54,18.63,61.75,25.65,11.69,3.87,23.49,7.38,35.25,11.05v4c-28.93-8.55-57.56-17.94-85.02-30.59-18.15-8.36-34.81-19.09-49.11-33.08-11.42-11.17-22.42-22.77-33.29-34.49-25.58-27.59-50.14-56.2-76.64-82.87a869.719,869.719,0,0,0-111.64-95.27c-25.66-18.31-54.43-27.61-85.53-30.74q-53.7-5.4-107.35-11.22c-3.11-.33-6.11-1.76-9.15-2.69,1.84-2.45,3.39-5.2,5.56-7.3,16.57-15.99,37.05-22.39,59.47-23.75,31.08-1.88,60.91,5.11,90.64,12.89,61.08,15.99,119.46,38.9,174.52,69.74,24.24,13.57,47.46,28.99,70.8,44.11,13.72,8.89,24.35,21.12,33.44,34.68,21.7,32.34,51.36,52.29,90.37,57,10.88,1.31,21.94,1.09,32.92,1.57C1920,720.33,1920,721.67,1920,723Z" fill="#600860"/>
    <path id="Caminho_70" data-name="Caminho 70" d="M1920,933c-42.5-5.27-85.02-10.34-126.04-23.69-41.87-13.64-76.4-37.81-105.23-70.81-20.24-23.17-37.41-48.53-54.51-73.99-19.32-28.77-38.85-57.33-63.19-82.36-35-35.99-77.41-56.37-127.07-60.73-56.7-4.97-112.53.62-166.73,18.71-20.03,6.69-38.55,16.4-54.68,30.44-20.33,17.7-32.52,39.94-37.31,66.16a313.16,313.16,0,0,0-4.07,36.71c-.85,13.62-1.24,27.32-.95,40.96.64,30.56-5.61,59.85-14.39,88.91-8.57,28.37-16.99,56.84-23.83,85.65-3.54,14.93-4.14,30.68-4.94,46.12-.77,14.94-.1,29.95-.06,44.93h-4c.83-24.45.84-48.96,2.69-73.33,2.15-28.23,10.44-55.25,19.34-82.03,7.99-24.04,16.28-48.06,19.17-73.38,1.49-13.03,1.6-26.23,2.19-39.36,1.15-25.92-.04-51.96,5.34-77.64,8.88-42.39,34.8-70.62,72.93-88.8,33.26-15.86,68.86-22.88,105.19-26.27a586.09,586.09,0,0,1,61.84-2.92c39.64.49,77.28,9.6,111.47,30.47a214.9,214.9,0,0,1,59.49,54.29c19.49,25.76,37.75,52.44,56.28,78.92,17.3,24.72,34.65,49.3,56.02,70.86,27.31,27.54,59.97,45.67,96.66,57.15,35.18,11,71.57,15.55,107.96,20,3.47.42,6.95.69,10.43,1.04C1920,930.33,1920,931.67,1920,933Z" fill="#600860"/>
    <path id="Caminho_71" data-name="Caminho 71" d="M1920,1019c-5.64-1.41-11.38-2.51-16.9-4.29-32.49-10.5-65.2-20.42-97.34-31.93-56.5-20.22-110.65-45.34-159.74-80.46-35.68-25.52-66.07-56.27-92.59-91.14-20.46-26.9-41.05-53.77-62.96-79.48-18.39-21.57-41.31-38.13-66.41-51.47a241.434,241.434,0,0,0-95.76-27.93c-17.96-1.37-35.58.49-52.38,7.79-20.92,9.1-31.58,28.17-27.22,50.58a158.946,158.946,0,0,0,7.54,25.35c6.52,17.31,6.54,35.3,6.02,53.27-1.45,49.45-15.21,96.58-27.93,143.88-11.35,42.2-20.93,84.75-24.98,128.37-.57,6.13-.9,12.29-1.34,18.43h-3c.34-31.66,5.31-62.75,12.6-93.41,8.71-36.62,18.67-72.94,27.61-109.51,8.28-33.89,14.37-68.14,13.82-103.23a110.406,110.406,0,0,0-5.86-35.33c-2.38-6.75-4.55-13.59-6.46-20.49-8.25-29.9,3.73-52.82,32.98-63.3,20.47-7.33,41.49-7.27,62.67-4.38,51.56,7.03,96.35,28.34,134.95,63.28,22.78,20.62,41.24,44.8,59.48,69.22,17.85,23.89,35.47,47.99,56.28,69.44a408.425,408.425,0,0,0,61.96,51.88c47.29,32.55,98.9,56.49,152.8,75.46,37.06,13.05,74.76,24.31,112.17,36.37C1920,1017,1920,1018,1920,1019Z" fill="#600860"/>
    <path id="Caminho_73" data-name="Caminho 73" d="M957,1080c-5.34-22.59-9.12-45.35-9.01-68.7a269.082,269.082,0,0,1,24.86-111.82c8.03-17.57,16.3-35.04,24.1-52.72,16.72-37.87,13.58-75.27-3.09-112.29-13.97-31.03-33.36-58.39-56.72-82.93-10.54-11.08-21.63-21.71-33.13-31.77a87.281,87.281,0,0,0-20.13-12.84c-22.28-10.52-43.17-6.54-61.06,10.6-11.62,11.14-19.76,24.67-27.01,38.78-13.19,25.65-26.82,51-43.35,74.73-17.75,25.48-39.97,46.77-62.17,68.18a473.538,473.538,0,0,0-33.19,35.2c-22.21,26.3-29.29,57.42-26.61,91.09,2.87,36.02,6.48,71.98,9.04,108.02,1.1,15.42.37,30.97.47,46.47h-4c1.94-44.42-2.05-88.49-7.49-132.5-2.37-19.19-3.36-38.49-.26-57.77,4.13-25.67,15.8-47.76,33.33-66.5,14.43-15.43,29.97-29.82,45.16-44.52,30.62-29.62,54.48-64.1,74.02-101.8,7.73-14.92,15.54-29.9,24.69-43.94,5.54-8.49,13.01-16.12,20.87-22.61,19.87-16.41,41.6-16.78,63.85-4.79,16.07,8.67,28.7,21.56,41.29,34.44,27.83,28.45,51.6,59.75,67.25,96.64,7.53,17.76,12.42,36.26,13.17,55.64.96,24.69-7.36,47.08-17.14,69.2-10.63,24.05-22.13,47.86-30.71,72.65-15.11,43.65-16.06,88.5-6.23,133.59.88,4.06,1.47,8.18,2.19,12.27Z" fill="#600860"/>
    <path id="Caminho_74" data-name="Caminho 74" d="M0,1014c24.68,6.2,49.7,5.57,74.48,1.85,37.53-5.64,75.12-11.37,112.21-19.33,31.1-6.68,56.48-24.16,75.03-50.44,12.12-17.16,16.44-36.85,17.43-57.55,1-20.94,1.46-41.97,3.86-62.76,3.74-32.34,19.95-58.17,44.97-78.68,8.76-7.18,17.54-14.34,26.15-21.69,22.17-18.92,34.29-43.18,36.47-72.06,2.53-33.66-2.3-66.58-13.53-98.31q-10.65-30.09-42.48-29.02c-21.27.74-42.57,2.56-63.69,5.21-30.22,3.8-60.44,8.04-90.41,13.45-41.71,7.54-81.27,21.95-119.51,40.15C41.54,594.09,21.55,601.97,0,605v-4c18.95-2.21,36.6-8.77,53.67-16.83,32.17-15.19,65-28.45,99.61-37.09A748.085,748.085,0,0,1,256.6,529.07c26.16-2.74,52.38-5.23,78.63-6.86,20.42-1.26,35.65,8.85,43.06,27.3,15.36,38.24,21.18,78.07,13.62,119.05-5.23,28.33-22.11,49.31-43.87,67.16-12.47,10.23-25.15,20.48-36.01,32.31-17.56,19.13-24.81,43.16-26.92,68.59-1.62,19.57-1.93,39.25-3.02,58.86-2.02,36.32-19.57,63.52-49.08,83.9a142.673,142.673,0,0,1-56.4,23.33q-52.875,9.465-106.04,17.31c-22.5,3.29-45.18,3.46-67.59-1.73a22.617,22.617,0,0,0-2.98-.28C0,1016.67,0,1015.33,0,1014Z" fill="#600860"/>
    <path id="Caminho_75" data-name="Caminho 75" d="M1916,1080c.03-17.72,1.66-14.32-13.65-18.91-51.25-15.35-102.31-31.18-151.3-52.95-40.68-18.08-79.03-40.01-113.41-68.53-23.56-19.55-44.14-41.93-63.37-65.68-17.6-21.73-34.91-43.78-53.78-64.38-19.98-21.8-44.31-38.28-71.54-50.15-28.86-12.58-58.87-20.35-90.52-20.29-14.46.03-28.58,2.5-41.41,9.73-17.11,9.65-23.92,25.1-19.78,44.29a20.278,20.278,0,0,0,.72,2.91c14.43,37.1,10.4,74.85,2.56,112.26-6.86,32.74-16.3,64.94-23.59,97.6-5.47,24.51-9.35,49.38-13.93,74.1h-4c5.81-48.17,19.8-94.52,31.38-141.41,7.57-30.63,13.24-61.56,13.66-93.26a102.214,102.214,0,0,0-5.24-33.91c-1.68-5.05-3.18-10.19-4.46-15.36-6.06-24.4,4.38-44.49,27.86-53.79a103.121,103.121,0,0,1,47.09-6.89c51.09,4.33,96.75,22.41,136.33,55.24,21.05,17.46,37.82,38.85,55.05,59.86,17.73,21.63,35.13,43.67,54.55,63.73,29.18,30.13,63.77,53.4,100.87,72.93,50.53,26.6,104.15,45.24,158.57,61.84,15.13,4.62,30.23,9.34,45.35,14.02v17Z" fill="#600860"/>
    <path id="Caminho_76" data-name="Caminho 76" d="M1155,0c-6.8,14.97-12.83,30.35-20.59,44.8-9.83,18.3-23.72,33.69-38.24,48.51-13.86,14.15-27.65,28.4-40.84,43.17a103.708,103.708,0,0,0-19.57,32.92,61.425,61.425,0,0,0-3.5,29.99c1.45,10.99,6.72,19.99,16.57,25.44,21.22,11.74,43.22,21.62,67.43,25.45,16.72,2.64,32.52.2,47-9.07,3.22-2.06,6.57-3.94,9.87-5.88,11.21-6.61,23.12-8.02,35.65-4.81,8.87,2.27,17.67,4.89,26.64,6.68,13.43,2.68,25.14-.86,34.23-11.43a173.1,173.1,0,0,0,11.41-14.53c16.34-23.76,39.25-38.65,65.84-48.16,12.83-4.59,26.21-7.67,39.31-11.5,36.96-10.79,64.6-33.61,84.66-66.02C1487.1,59.37,1495.06,30.89,1494,0h4c.35,30.01-6.6,58.21-21.9,84.07-22.34,37.76-54.22,63.02-97.43,73.22-18.04,4.26-35.66,9.78-52.04,18.76-17.98,9.85-33.15,22.73-44.89,39.66a112.738,112.738,0,0,1-12.61,15.43c-9.09,9.1-20.37,12.48-33.02,10.17a133.4,133.4,0,0,1-19.82-5.09c-17.48-6.1-33.52-4.4-48.79,6.57a63.475,63.475,0,0,1-42.45,12.04c-6.95-.5-14.16-1.04-20.65-3.29-17.12-5.94-34.34-11.93-50.73-19.57-20.65-9.63-28.44-26.42-24.94-48.86,3.35-21.42,14.39-38.98,28.53-54.6,12.96-14.31,26.91-27.73,40.35-41.61a237.993,237.993,0,0,0,51.74-80.64,56.853,56.853,0,0,0,1.66-6.25C1152.33,0,1153.67,0,1155,0Z" fill="#600860"/>
    <path id="Caminho_77" data-name="Caminho 77" d="M907,1080a290.667,290.667,0,0,1,27.2-117.48c4.43-9.51,8.2-19.32,12.28-28.99,14.18-33.58,12.1-66.64-3.27-99.22-15.01-31.81-36.44-58.81-62.41-82.29a158.339,158.339,0,0,0-17.57-13.97c-26.15-17.6-49.88-11.52-67.89,12.1-11.52,15.11-20.34,32.39-29.4,49.22-10.98,20.4-20.83,41.49-35.45,59.61-10.76,13.34-22.96,25.52-33.74,38.85-10.03,12.39-20.02,25.01-28.25,38.6-12.14,20.04-14.17,42.82-13.34,65.73.94,25.96,2.53,51.89,3.84,77.84h-4c-1.06-24.95-1.67-49.94-3.3-74.86-2.28-34.99,6.4-66.43,28.85-93.57,10.18-12.31,20.9-24.21,31.75-35.95,17.7-19.16,30.88-41.28,43.08-64.12,9.73-18.21,19.34-36.51,29.78-54.31a73.383,73.383,0,0,1,26.75-26.46c14.44-8.38,29.17-7.99,44.07-1.17,13.42,6.15,24.49,15.57,34.61,25.96,19.46,19.98,37.29,41.34,50.4,66.19,11.42,21.63,19.28,44.31,18.93,69.16-.24,17.66-5.76,34.08-12.55,50.11-10.21,24.08-21.16,47.87-27.82,73.29a256.738,256.738,0,0,0-8.54,65.73Z" fill="#600860"/>
    <path id="Caminho_78" data-name="Caminho 78" d="M0,961c31.56,4.82,62.41-.81,93.22-6.51,11.62-2.15,23.11-5.01,34.7-7.32,34.24-6.82,76.22-43.23,79.2-92.42.69-11.41,2.89-22.81,5.21-34.04,5.33-25.82,19.86-45.78,40.46-61.75,6.18-4.79,12.12-9.91,17.9-15.18,14.95-13.65,23.13-30.88,24.95-50.85,2.3-25.08-1.5-49.52-9.98-73.19a42.834,42.834,0,0,0-5.74-10.46c-5.4-7.43-12.68-12.18-22.1-11.35-16.24,1.43-32.49,3.06-48.61,5.44-35.45,5.23-70.6,11.91-104.96,22.42-23.99,7.34-46.56,17.99-69.44,28.02C23.58,658.73,11.62,661.99,0,666v-3c20.3-5.31,38.8-14.99,57.77-23.58,37.93-17.17,77.95-27.29,118.8-34.29,23.8-4.08,47.73-7.53,71.67-10.73,20.54-2.75,34.45,5.88,41.47,25.57,8.44,23.68,12.27,48.09,9.35,73.23-2.83,24.33-13.91,44.22-32.97,59.66-6.86,5.56-13.72,11.12-20.35,16.95-16.82,14.78-26.43,33.72-30.63,55.41-2.34,12.09-3.82,24.36-5.33,36.59-3.8,30.79-20.2,53.61-44.34,71.91a89.576,89.576,0,0,1-36.54,16.69C102.14,955.85,75.32,961.2,48.3,965c-13.52,1.9-27.53.32-41.31.28-2.33-.01-4.66-.19-6.99-.28Z" fill="#600860"/>
    <path id="Caminho_79" data-name="Caminho 79" d="M534,0c-12.55,34.15-32.45,62.75-62.13,84.44a398.161,398.161,0,0,0-37.65,31.18c-10.66,10.01-17.58,22.68-18.18,37.83-.59,15.04,6,25.62,20.27,30.28a115.094,115.094,0,0,0,27.8,5.21c36.95,2.47,72.99-4.5,109.03-11.37,23.4-4.46,46.83-8.62,70.82-8.67a135.613,135.613,0,0,1,49.3,9.25c10.11,3.88,20.19,7.86,30.44,11.32,34,11.46,63.22-2.02,83.37-25.41,16.98-19.7,25.49-43.23,29.85-68.33,4.51-25.92,8.05-52.01,12.06-78.02.9-5.91,2-11.8,3.02-17.71h4c-3.65,22.86-7.5,45.68-10.9,68.58-3.5,23.62-7.35,47.13-17.33,69.09-9.91,21.79-24.28,39.7-45.72,51.27a67.4,67.4,0,0,1-49.91,6.26,273.011,273.011,0,0,1-34.99-11.79c-18.17-7.32-36.83-12.21-56.42-11.07-15.6.91-31.17,2.98-46.63,5.36-27.66,4.26-55.13,9.77-82.84,13.56-22.13,3.03-44.47,3.78-66.61-1.08-29.28-6.42-40.53-29.36-27.54-56.38,7.35-15.29,19.25-26.62,32.27-36.93,10.58-8.37,21.52-16.3,31.97-24.83,21.03-17.17,35-39.48,45.6-64.13,1.12-2.6,2.04-5.27,3.06-7.92C531.33,0,532.67,0,534,0Z" fill="#600860"/>
    <path id="Caminho_80" data-name="Caminho 80" d="M1812,1080q-14.415-5.61-28.84-11.24c-42.05-16.5-82.19-36.52-118.32-63.96-27.64-20.99-51.32-45.95-73.53-72.45-19.27-22.98-38.33-46.23-63.07-63.77-39.78-28.21-83.99-42.84-132.89-42.53a64.956,64.956,0,0,0-31.55,8.46c-15.76,8.79-21.92,22.28-18.01,39.9,2.02,9.1,4.99,18.07,6.12,27.28,2.46,20.05-.27,40.01-4.46,59.54-6.66,31.1-14.53,61.94-21.82,92.91-2.02,8.59-3.76,17.25-5.63,25.88h-4c9.77-42.19,20.04-84.27,29.08-126.61,3.74-17.53,5.62-35.61,2.91-53.66a150.487,150.487,0,0,0-4.59-19.95c-8.65-29.44,7.61-46.5,31.26-53.56,20.18-6.02,40.51-4.7,60.86-.7,41.88,8.22,80.15,24.45,111.46,53.92,17.05,16.05,32.69,33.73,47.8,51.65,28.86,34.23,60.48,65.15,98.54,89.15,36.87,23.24,76.54,40.4,117.46,54.96,3.53,1.26,6.82,3.19,10.22,4.8C1818,1080,1815,1080,1812,1080Z" fill="#600860"/>
    <path id="Caminho_81" data-name="Caminho 81" d="M1625,0c-13.4,18.22-26.28,36.85-40.35,54.54-13.77,17.32-28.82,33.61-43.15,50.49-6.3,7.42-11.33,15.69-13.5,25.34-3.05,13.53,4.19,25.03,17.63,28.5a38.073,38.073,0,0,0,22.61-1.42c10.03-3.57,19.79-7.9,29.81-11.51,47.56-17.17,95.08-18.09,142.47.77,19.53,7.77,32.18,22.94,43.63,39.67,7.6,11.1,15.29,22.26,24.1,32.39,18.27,20.99,42.13,32.38,69.42,35.96,13.97,1.83,28.22,1.59,42.34,2.28v4c-14.13-.78-28.38-.67-42.37-2.5-37.02-4.84-65.57-23.68-86.27-54.63-6.21-9.28-12.41-18.57-18.88-27.67a74.5,74.5,0,0,0-36.63-27.46c-48.04-17.04-95.73-16.18-143,3.15-7.09,2.9-14.08,6.32-21.45,8.22a73.788,73.788,0,0,1-21.63,2.61c-20.12-1-31.11-18.07-24.51-37.12,3.73-10.76,10.48-19.61,17.79-28.13,17.69-20.6,35.66-40.97,52.81-62.01,9.13-11.2,16.8-23.6,25.13-35.46C1622.33,0,1623.67,0,1625,0Z" fill="#600860"/>
    <path id="Caminho_82" data-name="Caminho 82" d="M0,258c14.35,2.02,28.65,4.4,43.05,5.98,28.28,3.1,56.57,2.24,84.76-1.2,30.55-3.73,60.16-11.38,89.32-21.21,37.22-12.55,66.32-35.4,89.29-66.9q15.885-21.795,33.21-42.54c16.11-19.31,37.58-31.51,59.18-43.65,14.03-7.89,27.85-16.51,40.45-26.46C458.95,46.45,469.34,25.85,467,0h3c3.72,29.56-9.84,51.51-32.12,68.38-13.73,10.4-28.8,19.31-44.11,27.28-28.75,14.99-51.65,36.05-70.58,62.1-10.36,14.26-21.5,28.01-33.01,41.36-18.53,21.5-42.45,35.21-68.83,44.71-42.45,15.28-86.15,24.25-131.41,25.26-27.9.62-55.57-1.12-83-6.42-2.27-.43-4.63-.45-6.94-.67Z" fill="#600860"/>
    <path id="Caminho_83" data-name="Caminho 83" d="M0,907c29.15.81,57.41-4.06,84.97-13.36a34.673,34.673,0,0,0,18.21-13.33,114.194,114.194,0,0,1,9.11-11.27c11.45-12.77,19.04-27.64,24.45-43.77a103.008,103.008,0,0,1,35.85-50.01c8.46-6.49,16.34-13.67,21.59-23.3,9.01-16.53,8.35-33.96,5.05-51.62a95.6,95.6,0,0,0-3.92-13.94c-4.94-14.04-13.05-18.88-27.84-15.8-16.31,3.4-32.47,7.47-48.7,11.27-38.53,9.01-74.7,24.33-110.28,41.27A71.745,71.745,0,0,1,0,726v-3c22.75-9.87,45.18-20.58,68.33-29.41,32.59-12.42,66.64-20.01,100.74-27.04,12.18-2.51,20.99.88,26.02,11.71,12.46,26.82,15.52,54.19-1.15,80.56-4.15,6.57-10.48,12.14-16.76,16.9a107.089,107.089,0,0,0-37.8,52.78,125.6,125.6,0,0,1-26.52,45.38,105.527,105.527,0,0,0-8.01,10.21c-5.28,7.48-12.8,11.35-21.28,13.98C56.34,906.5,28.6,911.5,0,911Z" fill="#600860"/>
    <path id="Caminho_84" data-name="Caminho 84" d="M876,1080c6.4-18.75,13.21-37.37,19.03-56.3,3.75-12.19,7.39-24.69,8.7-37.3,2.51-24.04-6.33-45.52-18.54-65.71a196.421,196.421,0,0,0-47.59-53.47,68.3,68.3,0,0,0-10.5-6.72c-16.84-8.77-31.85-6.49-45.82,6.53-12.34,11.5-20.43,25.81-27.09,41-5.41,12.36-10.17,25.01-15.52,37.39-8.02,18.52-20.36,34.39-32.13,50.53-18.33,25.13-28.13,52.74-26.54,84.05h-4c-.76-31.24,7.49-59.92,26.68-84.57,21.56-27.68,36.6-58.56,49.21-91.01a106.811,106.811,0,0,1,26.59-39.5c16.35-15.35,36.52-18.15,54.71-5.12,36.72,26.3,63.42,60.07,73.25,105.27,3.61,16.6,1.27,32.87-4.06,48.71-6.42,19.09-13.3,38.04-19.9,57.07-1.03,2.98-1.67,6.1-2.49,9.15Z" fill="#600860"/>
    <path id="Caminho_85" data-name="Caminho 85" d="M1216,0c-3.41,13.04-6.25,26.26-10.35,39.07-6.88,21.52-19.17,39.69-37.77,52.73-18.81,13.19-25.11,30.19-18.7,52.11.75,2.55,1.2,5.19,1.84,7.78,2.62,10.59,9.47,16.87,19.87,19.61,17.31,4.54,34.63,6.53,52.28,1.55a92.472,92.472,0,0,1,44.49-1.47,49.026,49.026,0,0,0,35.66-6.04c52.77-31.12,83.17-76.98,90.32-137.87,1.06-9.04.28-18.3.36-27.46h4c.59,20.77-.79,41.32-7.16,61.26-15.44,48.37-44.53,85.55-89.96,109.23-9.8,5.11-20.24,6.94-31.03,4.77-16.69-3.36-33.06-2.35-49.49,1.73-17.1,4.24-34.1,2.29-50.9-2.12-11.65-3.05-19.23-10.35-21.86-22.26-1.62-7.31-3.22-14.66-4.24-22.07-2.32-16.83,5.89-28.88,18.64-38.39,15.51-11.57,28.2-25.4,36.05-43.28A198.47,198.47,0,0,0,1212.02,0Z" fill="#600860"/>
    <path id="Caminho_87" data-name="Caminho 87" d="M1708,1080c-10.6-7.5-21.37-14.77-31.75-22.56-25.44-19.11-47.37-41.99-68.29-65.75-40.4-45.91-90.65-72.41-151.51-78.39-14.52-1.43-29-.7-42.71,5.33-16.16,7.11-24,20.58-19.41,37.56,5.84,21.6,2.94,42.72-.91,63.86-2.98,16.37-7.2,32.52-10.88,48.76-.84,3.73-1.7,7.47-2.55,11.2h-4c5.79-27.54,11.93-55.01,17.22-82.64,2.3-11.99,1.23-24.21-1.53-36.23a83.934,83.934,0,0,1-1.69-14.34c-.69-13.09,5.67-22.29,16.69-28.5,14.3-8.06,30.01-10.19,45.98-8.9,40.96,3.29,78.94,15.7,112.96,39.17,18.36,12.68,33.93,28.52,48.77,44.98,28.13,31.2,58.19,60.07,94.3,82.06a45.913,45.913,0,0,1,5.31,4.4Q1711,1080,1708,1080Z" fill="#600860"/>
    <path id="Caminho_88" data-name="Caminho 88" d="M1920,779c-14.13-7.1-28.33-14.07-42.37-21.33-21.6-11.18-43.22-22.43-62.33-37.66-12.75-10.17-24.81-21.2-37.39-31.58-12.64-10.42-25.94-19.96-41.97-24.53-5.55-1.58-11.41-2.18-17.16-2.91-1.64-.21-3.41.7-5.13,1.09.48,1.69.59,3.63,1.51,5.02q7.905,11.835,16.15,23.45c18.91,26.74,39.6,51.84,65.62,72.16a259.555,259.555,0,0,0,117.58,51.91c1.79.31,3.65.26,5.47.39v4c-33.45-4.51-64.58-15.72-93.94-32.25-38.28-21.56-67.91-52.2-92.97-87.74-6.91-9.8-14.14-19.39-20.71-29.41-2.01-3.07-2.32-7.26-3.41-10.94,3.68-.49,7.41-1.64,11.02-1.35,21.46,1.72,39.36,11.79,55.67,24.97,13.86,11.19,27.1,23.16,41.04,34.24,20.59,16.36,43.9,28.32,67.18,40.27,10.22,5.25,20.39,10.6,30.61,15.86,1.77.91,3.66,1.57,5.49,2.35C1920,776.33,1920,777.67,1920,779Z" fill="#600860"/>
    <path id="Caminho_89" data-name="Caminho 89" d="M601,0c-2.75,4.52-5.05,9.4-8.33,13.49-11.13,13.9-22.69,27.47-33.94,41.28-8.15,10.01-15.37,20.59-17.96,33.59-1.97,9.87.88,15.66,10.16,19.6,11.95,5.08,24.61,6.25,37.29,4.49,16.32-2.27,32.5-5.49,48.75-8.27,14.55-2.49,29.08-3.38,43.66.04,12.79,3,22.64,10.93,32.7,18.65,6.06,4.66,12.13,9.45,18.75,13.22,17.94,10.22,35.46,6.56,48.53-9.46a70.843,70.843,0,0,0,14.96-31.29C801.74,63.63,807.23,31.79,813,0h4c-4.64,26.08-9.18,52.18-13.97,78.23-2.77,15.09-5.79,30.19-14.06,43.5-9.15,14.71-21.85,23.64-39.81,23.18-9.5-.24-17.74-4.33-25.32-9.69-6.93-4.91-13.83-9.89-20.43-15.23-17.57-14.2-37.9-16.34-59.15-13.31-16.97,2.42-33.74,6.29-50.72,8.68-14.09,1.98-28.26,1.75-41.91-3.42-13.86-5.24-17.04-11.38-13.91-25.82,3.39-15.64,13.1-27.42,22.91-39.28,11.24-13.6,22.24-27.4,33.25-41.19C595.21,4,595.98,1.89,597,0Z" fill="#600860"/>
    <path id="Caminho_90" data-name="Caminho 90" d="M371,0c2.29,5.71,4.8,11.34,6.82,17.15,9.45,27.22,2.86,48.11-20.98,64.39-10.43,7.12-21.64,13.1-32.56,19.49-15.36,8.99-27.33,21.62-38.52,35.17-11.43,13.85-22.14,28.35-36.59,39.46-25.82,19.85-55.39,30.99-86.91,37.29C107.95,223.8,55.23,218.19,4.23,196.52,2.85,195.93,1.41,195.5,0,195v-4c18.49,7.65,37.21,14.59,56.95,18.35,58.11,11.1,114.03,5.31,167.13-21.79,19.48-9.94,35.06-24.56,48.87-41.3,11.85-14.37,22.6-29.89,38.13-40.68,9.82-6.82,20.55-12.32,30.55-18.89a212.2,212.2,0,0,0,23.26-17.08c12.65-11.06,15.61-25.65,12.07-41.46-1.69-7.56-5.07-14.74-7.7-22.09C368.53,4.03,367.75,2.02,367,0Z" fill="#600860"/>
    <path id="Caminho_91" data-name="Caminho 91" d="M1683,0c-3.44,6.22-6.42,12.77-10.45,18.59a230.006,230.006,0,0,1-16.15,20.33c-10.6,12.12-11.6,26.47-10.11,41.4.48,4.79,4.14,6.44,8.6,6.67,11.57.58,22.45-2.47,33.15-6.33,11.75-4.24,23.3-9.06,35.19-12.83,31.23-9.88,57.96-1.01,81.45,20.47,13.82,12.64,21.91,29.12,31.09,44.99,5.79,10.01,11.94,20.37,20.1,28.35,16.25,15.9,36.3,19.14,57.95,12.37,2.07-.65,4.12-1.33,6.18-2v4c-9.89,3.06-19.79,5.65-30.38,4.7-23.37-2.1-39.3-15.06-50.8-34.43-6.46-10.88-12.22-22.17-18.73-33.02-9.06-15.11-20.95-27.55-36.58-36.05-23.06-12.54-46.56-11.75-70.41-2.33-16.1,6.36-31.99,13.32-49.4,15.66-16.72,2.25-21.27-1.84-21.83-18.66-.49-14.85,4.43-27.16,14.04-38.34,7.24-8.43,13.47-17.74,19.97-26.78,1.42-1.98,2.09-4.49,3.11-6.75C1680.33,0,1681.67,0,1683,0Z" fill="#600860"/>
    <path id="Caminho_92" data-name="Caminho 92" d="M0,149c11.64,1.96,23.22,5.15,34.92,5.66,31.93,1.37,63.9,1.88,95.86,2.17,12.79.12,25.61-.95,38.37-2.05a34.15,34.15,0,0,0,12.73-3.98c7.01-3.74,8.6-11.18,4.45-17.95-4.66-7.61-12.09-11.79-20.32-13.4a222.53,222.53,0,0,0-31.16-3.47c-25.3-1.31-50.56-2.63-75.3-8.71C39.9,102.44,21.78,94.36,5.67,81.97,4.01,80.68,1.9,79.98,0,79V73q4.575,3.435,9.15,6.86C30.48,95.9,54.9,104.28,81.02,107.63c17.14,2.2,34.46,2.89,51.69,4.39,10.26.89,20.58,1.57,30.73,3.22a40.178,40.178,0,0,1,23.17,11.86c9.33,9.78,6.86,23.98-5.96,28.24a92.9,92.9,0,0,1-27.4,4.31c-31.77.51-63.57,1.01-95.31-.09C38.57,158.89,19.31,155.29,0,153Z" fill="#600860"/>
    <path id="Caminho_93" data-name="Caminho 93" d="M1281,0c-7.14,15.52-19.07,27.58-29.39,40.83-13.09,16.81-26,33.76-38.98,50.66-.2.26-.37.55-.56.82-5.31,7.57-9.2,15.76-3.86,24.56,5.86,9.66,15.44,13.73,26.48,12.72a73.119,73.119,0,0,0,19.81-4.76c13.27-5.24,26.94-8.46,40.92-10.97a147.793,147.793,0,0,0,23.11-6.18c15.56-5.52,26.25-16.82,33.72-31.11C1364.74,52.6,1371.14,26.89,1373,0h4c-3.06,23.5-7.29,46.71-16.72,68.67-11.17,26-29.53,43.27-58.23,47.59-17.23,2.6-33.66,7.73-50.09,13.29-7.08,2.4-14.96,3.01-22.51,3.27-8.13.28-15.32-3.28-20.9-9.22-6.19-6.58-8.46-14.54-4.91-23.04a68.988,68.988,0,0,1,9.06-15.4c18.23-23.56,36.82-46.84,55.08-70.38,3.54-4.57,6.18-9.84,9.23-14.79C1278.33,0,1279.67,0,1281,0Z" fill="#600860"/>
    <path id="Caminho_94" data-name="Caminho 94" d="M307,0c9.57,33.76-12.52,59.68-37.5,70.27-19.11,8.1-39.24,10.05-59.75,9.03-7.65-.38-15.29-.95-22.9-1.77C166.06,75.29,148.84,65.3,132.45,53c-14.89-11.18-29.73-22.74-45.9-31.79-12.15-6.8-26.38-9.9-39.68-14.63-1.89-.67-3.81-1.29-5.71-1.93.1-.67.19-1.34.29-2.01a45.218,45.218,0,0,1,6.61.52,167.286,167.286,0,0,1,66.86,31.38c10.14,7.84,20.26,15.74,30.66,23.23,15.45,11.13,33.03,16.04,51.9,17.38,18.72,1.33,37.3,1.28,55.62-3.24,14.99-3.7,28.48-10.23,38.95-22.06C304.96,35.24,308.19,18.56,303,0Z" fill="#600860"/>
    <path id="Caminho_95" data-name="Caminho 95" d="M1652,1080c-27.04-27.7-56.01-52.66-93.22-66.02-23.34-8.38-47.21-14.22-72.15-13.8a96.081,96.081,0,0,0-23.58,3.47c-13.06,3.57-24.61,13.89-21.23,32.23a90.417,90.417,0,0,1-.7,35.22c-.61,2.91-.75,5.93-1.11,8.89h-4a168.372,168.372,0,0,0,2.22-47.71c-1.4-16.29,7.24-27.05,23.92-32.26,15.66-4.89,31.55-4.57,47.5-2.04,31.56,5.01,61.85,13.86,88.83,31.51,10.56,6.91,20.41,14.98,30.08,23.12,8.4,7.07,16.12,14.95,24.03,22.57,1.39,1.34,2.29,3.2,3.41,4.82Z" fill="#600860"/>
    <path id="Caminho_96" data-name="Caminho 96" d="M0,851c12.94.54,25.1-2.61,36.76-7.93,5.99-2.74,7.34-5.25,6.48-11.82-.71-5.38.63-10.21,4.78-13.51a144.712,144.712,0,0,1,16.82-11.49c8.46-4.95,17.7-8.69,25.78-14.17,15.87-10.75,20.22-28.83,11.7-44.72-3.36-6.27-6.5-7.6-13.03-4.59C61.01,755.76,32.8,768.91,4.57,781.99c-1.51.7-3.04,1.34-4.57,2.01v-4q39.48-18.69,78.98-37.35a76.038,76.038,0,0,1,10.27-3.88c7.37-2.23,12.08-.29,16.05,6.29,10.2,16.93,4.35,39.5-13.85,50.9-9.42,5.9-19.59,10.6-29.37,15.93-2.77,1.51-5.41,3.28-8.03,5.03-5.47,3.65-7.9,8.59-7.07,15.34.92,7.52-.94,10.49-7.84,13.74A97.5,97.5,0,0,1,0,855Z" fill="#600860"/>
    <path id="Caminho_97" data-name="Caminho 97" d="M852,1080c2.1-19.89-4.59-37.47-14.71-53.95a120.282,120.282,0,0,0-34.55-36.31q-24.33-16.785-45.63,3.72a55.018,55.018,0,0,0-17.05,33.68c-2.2,18.31-6.02,36.13-14.06,52.86h-4c7.81-16.76,12.31-34.37,14.48-52.74a57.321,57.321,0,0,1,23.59-40.77c13.01-9.64,27.47-10.84,41.08-2.05,32.22,20.79,51.61,49.89,55.26,88.62.22,2.28-.26,4.63-.41,6.95C854.67,1080,853.33,1080,852,1080Z" fill="#600860"/>
    <path id="Caminho_98" data-name="Caminho 98" d="M1763,0c-1.69,3.97-3.28,7.98-5.07,11.9-4.38,9.56-2.63,15.88,7.31,18.95,9.91,3.07,20.37,4.73,30.71,5.93,7.21.83,14.64,0,21.95-.37,14.19-.71,26.04,4.2,36.05,14.15,5.91,5.87,11.83,11.75,18.16,17.15C1886.48,79.98,1902,86,1920,75v4c-18.58,10.75-33.78,5.87-52.05-9.87-7.17-6.18-13.74-13.06-20.73-19.46-7.61-6.96-16.7-9.93-27.01-9.75-11.13.18-22.35.88-33.36-.27a97.146,97.146,0,0,1-25.37-6.75c-9-3.58-11.26-9.81-8.23-19.12,1.53-4.72,3.81-9.2,5.75-13.78Z" fill="#600860"/>
    <path id="Caminho_99" data-name="Caminho 99" d="M1327,0a87.032,87.032,0,0,1-13.46,35.67c-6.33,9.77-12.63,19.56-18.68,29.5-1.95,3.21-4.37,7.61-.81,10.48a16.074,16.074,0,0,0,10.9,2.97c8.69-.99,15.62-6.04,20.31-13.2A107.163,107.163,0,0,0,1336,44.7c4.9-13.08,8.88-26.5,13.17-39.81a34.344,34.344,0,0,0,.84-4.9h4c-6,18.34-11.55,36.84-18.16,54.95a44.838,44.838,0,0,1-20.34,23.93c-5.32,3.02-10.93,4.92-17.2,3.38-7.37-1.8-10.8-6.76-8.8-14.09a42.769,42.769,0,0,1,5.42-11.7c5.24-8.11,11.14-15.79,16.37-23.9,6.4-9.91,10.68-20.69,11.71-32.58C1324.33,0,1325.67,0,1327,0Z" fill="#600860"/>
    <path id="Caminho_100" data-name="Caminho 100" d="M660,0c-3.42,8.1-7.01,16.13-10.18,24.33a57.616,57.616,0,0,0-3.67,13.36c-.74,5.88,1.98,10.77,7.65,11.9,25.9,5.14,51.72,7.71,73.85-11.35,10.81-9.32,16.27-22.07,20.45-35.39L749,0h3c-3.24,21.82-22.23,53.95-57.44,55.82a206.178,206.178,0,0,1-37.72-1.85c-12.63-1.66-17.37-9.81-13.56-22.06,2.56-8.22,6.55-16,9.84-24,1.07-2.6,1.93-5.28,2.88-7.92C657.33,0,658.67,0,660,0Z" fill="#600860"/>
    <path id="Caminho_102" data-name="Caminho 102" d="M1887,0c5.16,8.04,11.62,14.78,20.86,17.82,3.77,1.24,8.08.84,12.14,1.18v4c-15.1.99-32.44-10.09-36-23Z" fill="#600860"/>
  </g>
</svg>
