<svg xmlns="http://www.w3.org/2000/svg" width="339" height="390.835" viewBox="0 0 339 390.835">
  <g id="Grupo_3" data-name="Grupo 3" transform="translate(-13202 -2832)">
    <rect id="Retângulo_14" data-name="Retângulo 14" width="339" height="390.835" transform="translate(13202 2832)" fill="#84087e"/>
    <g id="logo_databizz" transform="translate(13237.387 2864.858)">
      <path id="Caminho_2" data-name="Caminho 2" d="M234.395,252.1c5.185-1.252,10.325-2.727,15.421-4.246a41.774,41.774,0,0,0,12.56-6.034,38.466,38.466,0,0,0,4.827-4.112,8.7,8.7,0,0,1,1.162-1.073,10.454,10.454,0,0,0,1.073.4,5.314,5.314,0,0,0,3.531-.045,7.778,7.778,0,0,0,2.056-9.3l.268-.4c.983-1.564,2.011-3.174,2.995-4.738a2.369,2.369,0,0,0,.358-1.207V217.2a1.306,1.306,0,0,0-.089-.4c0-.045-.089-.045-.134-.045h-.134l-.313.447v-1.922a1.3,1.3,0,0,0-.089-.4c0-.045-.089-.045-.134-.045h-.134a7.351,7.351,0,0,0-.626.983c-1.609,2.771-3.308,5.5-5.1,8.224-.67.983-.581,1.162-1.788,1.117a2.025,2.025,0,0,0-.715.134,5.1,5.1,0,0,0-4.068,6.034v.089a5.756,5.756,0,0,1,.179.849,1.3,1.3,0,0,1-.089.4,5.361,5.361,0,0,1-.492.536,37.071,37.071,0,0,1-10.191,7.42,39.256,39.256,0,0,1-6.7,2.592c-2.905.849-5.811,1.7-8.716,2.5-4.6,1.251-9.208,2.414-13.856,3.352a61.537,61.537,0,0,0-11.577,3.442c-6.571,2.682-13.007,5.5-19.4,8.493q-9.118,4.291-18.237,8.671c-4.872,2.324-9.744,4.6-14.706,6.615a138.01,138.01,0,0,1-20.919,6.883c-2.771.67-5.543,1.207-8.359,1.609-1.609.224-3.218.447-4.872.626-2.235.224-4.515.4-6.749.447a59.733,59.733,0,0,1-8.493-.447,46.363,46.363,0,0,1-6.928-1.386,62.79,62.79,0,0,1-11.487-4.738,5.77,5.77,0,0,0-.313-1.922,3.963,3.963,0,0,0-.358-.76,5.145,5.145,0,0,0-5.721-4.514,4.9,4.9,0,0,0-2.1.715c-.313.179-.626.447-1.073.715-.313-.179-.536-.358-.8-.492-2.727-1.877-5.408-3.844-8-5.945A155.5,155.5,0,0,1,59.134,252.15c-.715-.76-1.43-1.564-2.146-2.369-2.324-2.771-4.559-5.587-6.749-8.448a17.933,17.933,0,0,1-1.877-2.905l-.8-1.341c-.715-1.117-1.43-2.28-2.146-3.4-2.011-3.218-3.933-6.481-5.677-9.878a124.539,124.539,0,0,1-7.107-16.672c-.447-1.386-.894-2.771-1.3-4.157-.089-.358-.223-.76-.313-1.117a.465.465,0,0,1,.268-.581,6.535,6.535,0,0,0,.581-.4,5,5,0,0,0,2.011-4.425,5.365,5.365,0,0,0-.67-2.324,5.175,5.175,0,0,0-3.755-4.336c-.313-.089-.67-.134-.983-.223l-.268-.089c-.268-1.609-.536-3.263-.76-4.872-.313-1.967-.492-3.933-.67-5.855-.223-2.235-.358-4.514-.447-6.749a124.654,124.654,0,0,1,.492-16.851c.223-2.056.4-4.112.715-6.168.447-2.995.983-5.99,1.609-8.94A127.7,127.7,0,0,1,63.782,76.039c2.369-2.369,4.872-4.649,7.286-6.973A53.227,53.227,0,0,1,75.9,64.954c.894-.67,1.833-1.386,2.771-2.056.4-.268.8-.536,1.207-.76a20.017,20.017,0,0,0,2.1-1.252,76.783,76.783,0,0,1,22.483-9.744c2.5-.626,5.051-1.117,7.643-1.52,1.7-.268,3.442-.4,5.14-.581a9.727,9.727,0,0,1,2.28-.045,4.032,4.032,0,0,0,.4.447,5.244,5.244,0,0,0,7.375.715,3.572,3.572,0,0,0,.581-.581c.179-.223.4-.4.581-.626a10.862,10.862,0,0,1,1.207,0c1.3.089,2.592.179,3.889.313,2.146.223,4.291.492,6.437.715,2.905.313,5.811.8,8.716,1.3,3.71.626,7.375,1.341,11.04,2.011,3.084.536,6.168,1.117,9.253,1.609,3.442.536,6.928,1.073,10.415,1.564,3.352.447,6.66.894,10.012,1.341.983.134,2.011.223,2.995.358l3.889.4c1.43.134,2.861.358,4.291.447,2.1.134,4.2.4,6.3.67A97.635,97.635,0,0,1,217.1,61.647a87.369,87.369,0,0,1,19.757,7.509,76.946,76.946,0,0,1,29.054,26.327,94,94,0,0,1,7.331,13.722c1.7,3.844,3.174,7.733,4.559,11.666a8.054,8.054,0,0,1,.358.939c0,.045.089.045.134.045a.188.188,0,0,0,.179-.179c0-.358.045-.67.045-1.028V115.91c0-2.28.134-1.609-.626-3.531a8.052,8.052,0,0,0-.671-2.056,109.447,109.447,0,0,0-6.883-14.437,80.068,80.068,0,0,0-20.248-23.422A84.76,84.76,0,0,0,227.511,59.9a97.754,97.754,0,0,0-14.929-4.246,81.087,81.087,0,0,0-8.135-1.252c-1.207-.134-2.369-.268-3.576-.4l-4.47-.447c-1.3-.134-2.592-.223-3.889-.4-2.011-.223-4.023-.492-5.99-.715-2.548-.313-5.051-.626-7.554-.983-2.861-.4-5.721-.849-8.537-1.3-3.71-.581-7.375-1.207-11.085-1.833-4.38-.76-8.761-1.7-13.186-2.369-1.564-.268-3.129-.492-4.693-.715-1.967-.268-3.933-.492-5.855-.67s-3.844-.358-5.721-.536c-.313-.045-.67-.089-.983-.134-.045-.045-.045-.089-.089-.179-.045-.179-.134-.358-.179-.536s-.134-.492-.179-.715a5.1,5.1,0,0,0-5.051-3.576,4.989,4.989,0,0,0-4.783,3.531c-.089.223-.134.447-.223.715-.179.67-.223.715-.8.76-.179,0-.4.045-.581.045a71.9,71.9,0,0,0-7.6.894A74.567,74.567,0,0,0,98.11,47.612a81.891,81.891,0,0,0-18.326,8.671,10.643,10.643,0,0,1-1.341.8A15.254,15.254,0,0,0,75.9,58.7L74.286,59.9a52.836,52.836,0,0,0-4.246,3.442c-2.995,2.727-5.945,5.453-8.806,8.314a131.39,131.39,0,0,0-37.949,81.4c-.313,3.174-.447,6.347-.536,9.521-.134,3.755.089,7.509.268,11.219a1.521,1.521,0,0,0,.045.447c.223,2.458.4,4.872.76,7.33.268,1.743.492,3.531.76,5.274.179,1.117.4,2.28.581,3.4-.313.358-.626.626-.894.983a5.076,5.076,0,0,0-1.117,4.47,5.347,5.347,0,0,0,.581,1.475,1.588,1.588,0,0,0,.089.447,4.981,4.981,0,0,0,3.263,3.755,3.794,3.794,0,0,1,.983.4c.536,1.877,1.117,3.755,1.788,5.632.358,1.028.67,2.056,1.028,3.084a125.069,125.069,0,0,0,11.666,24.584l3.352,5.364c.268.447.581.894.8,1.341a20.878,20.878,0,0,0,1.7,2.682c1.609,2.1,3.263,4.157,4.872,6.258a80.027,80.027,0,0,0,6.615,7.42c.626.626,1.207,1.251,1.833,1.833a157.266,157.266,0,0,0,20.829,17.3l.313.224a4.809,4.809,0,0,0,.313,1.386,3.963,3.963,0,0,0,.358.76,4.9,4.9,0,0,0,.268,1.162,5.234,5.234,0,0,0,6.7,3.084c.089-.045.223-.089.313-.134a5.728,5.728,0,0,0,.894-.492.608.608,0,0,1,.67,0c.313.134.581.313.894.447.939.447,1.877.939,2.861,1.386a62.464,62.464,0,0,0,8.448,3.308,51.69,51.69,0,0,0,13.052,2.1,71.764,71.764,0,0,0,10.728-.4c1.877-.223,3.71-.447,5.587-.76,3.621-.581,7.152-1.341,10.728-2.235a146.7,146.7,0,0,0,17.209-5.766c4.872-1.922,9.61-4.112,14.348-6.347,6.034-2.861,12.068-5.721,18.058-8.627,6.883-3.263,13.856-6.392,20.963-9.252a60.377,60.377,0,0,1,11.13-3.4A72.444,72.444,0,0,0,234.395,252.1Zm34.6-20.293a2.148,2.148,0,0,1,2.056-1.788,2.019,2.019,0,0,1,1.564.581,2.137,2.137,0,0,1-1.967,1.788,2.219,2.219,0,0,1-1.654-.581ZM88.634,277a2.017,2.017,0,0,1,1.475.536,2.079,2.079,0,0,1-2.1,1.788,2.222,2.222,0,0,1-1.475-.536A2.012,2.012,0,0,1,88.634,277ZM30.348,195.07a2.182,2.182,0,0,1-2.235,1.833,1.961,1.961,0,0,1-1.386-.581,2.055,2.055,0,0,1,2.146-1.788A1.89,1.89,0,0,1,30.348,195.07ZM124.169,43.991a2.266,2.266,0,0,1,1.475.581A2.092,2.092,0,0,1,123.5,46.4a2.2,2.2,0,0,1-1.43-.626,2.084,2.084,0,0,1,2.1-1.788Z" transform="translate(-12.558 -21.497)" fill="#fff"/>
      <path id="Caminho_3" data-name="Caminho 3" d="M5.274,69.491a.513.513,0,0,1,.492-.268,1.49,1.49,0,0,0,.447,0,10.641,10.641,0,0,0,1.7-.045A5.159,5.159,0,0,0,11.979,63.1c0-.089-.045-.134-.045-.223a5.248,5.248,0,0,0-.894-1.967.774.774,0,0,1-.313-.715c.179-.268.4-.67.626-1.028A160.59,160.59,0,0,1,24.226,42,186.979,186.979,0,0,1,39.334,26.76a135.648,135.648,0,0,1,11.175-9.074,16.17,16.17,0,0,1,1.43-.983c.67-.447,1.386-.894,2.056-1.341A123.576,123.576,0,0,1,84.122.746l1.073-.4A.246.246,0,0,0,85.329.12h0c-.045,0-.089-.045-.134-.045-2.592,0-5.185-.045-7.777,0a2.886,2.886,0,0,0-.849.179c-.268.089-.536.223-.8.313A131.1,131.1,0,0,0,58.331,9.1c-2.995,1.743-5.9,3.665-8.761,5.587-2.458,1.654-4.827,3.531-7.107,5.408-3.039,2.5-5.945,5.14-8.85,7.867a160.368,160.368,0,0,0-24.9,29.769,4.7,4.7,0,0,1-.894,1.207,5.777,5.777,0,0,0-4.068,1.028A4.8,4.8,0,0,0,1.743,63.5c-.134,1.341-.179,1.922,1.073,4.112a10.084,10.084,0,0,1-.492.983C1.654,69.938.939,71.235.268,72.576A2.246,2.246,0,0,0,0,73.648v5.364a.721.721,0,0,0,.134.4s.134.045.134,0a4.08,4.08,0,0,0,.358-.581C1.877,76.107,3.218,73.38,4.649,70.7,4.872,70.251,5.1,69.849,5.274,69.491Zm-.536-5.5a2.045,2.045,0,0,1,2.324-2.011,2.109,2.109,0,1,1-2.324,2.011Z" transform="translate(0 -0.02)" fill="#fff"/>
      <path id="Caminho_4" data-name="Caminho 4" d="M405.289.323c.358.089.76.179,1.117.268,2.861.626,5.721,1.162,8.582,1.833,3.844.849,7.688,1.743,11.443,2.861,3.263.939,6.526,1.967,9.7,3.174a1.937,1.937,0,0,1,.894.492c.045.4.089.849.134,1.252a7.783,7.783,0,0,0,.223.983,5.234,5.234,0,0,0,6.7,3.084,7.121,7.121,0,0,0,1.3-.67c.358-.268.671-.536,1.028-.849a5.2,5.2,0,0,1,.67.268c1.43.715,2.861,1.386,4.291,2.1A123.584,123.584,0,0,1,479.13,34.562a119.267,119.267,0,0,1,9.834,10.325c.268.268.536.581.8.849a.164.164,0,0,0,.134.045c.089,0,.179-.045.179-.134V45.6c0-1.252,0-2.5.045-3.755a.854.854,0,0,0-.313-.626c-.581-.626-1.162-1.3-1.743-1.922a125.994,125.994,0,0,0-29.814-23.869c-3.084-1.788-6.213-3.442-9.431-4.961a2.791,2.791,0,0,1-1.252-.76c-.045-.4-.089-.8-.134-1.252a4.029,4.029,0,0,0-.268-.983,5.187,5.187,0,0,0-6.7-2.995,4.115,4.115,0,0,0-1.073.581c-.313.223-.581.492-.894.715a.664.664,0,0,1-.4.089,5.658,5.658,0,0,1-.8-.268A145.43,145.43,0,0,0,419.324.323,8.561,8.561,0,0,0,417.492.1H406.228a5.133,5.133,0,0,0-.849.045c-.045,0-.134.089-.179.134C405.245.234,405.245.279,405.289.323Zm37.144,6.928a2.147,2.147,0,1,1-.179,4.291,2.137,2.137,0,0,1-2.056-2.19,2.1,2.1,0,0,1,2.1-2.1.084.084,0,0,1,.134,0Z" transform="translate(-224.083 -0.044)" fill="#fff"/>
      <path id="Caminho_5" data-name="Caminho 5" d="M528.365,536.935a5.344,5.344,0,0,0,.536-.492.883.883,0,0,0,.268-.626v-3.039c0-.045-.045-.089-.045-.134,0-.089-.268-.179-.358-.089l-2.28,1.967a111.905,111.905,0,0,1-9.029,6.884,170.541,170.541,0,0,1-22.483,13.409c-6.258,3.039-12.426,6.3-18.684,9.342a3,3,0,0,0-.492.313v.134a.1.1,0,0,0,.089.089l2.861.089v-.045h2.458a2.571,2.571,0,0,0,1.386-.358,8.347,8.347,0,0,1,.894-.447l10.012-5.051c2.19-1.117,4.38-2.19,6.571-3.308a195.123,195.123,0,0,0,23.02-14.482C524.923,539.8,526.666,538.41,528.365,536.935Z" transform="translate(-263.127 -294.481)" fill="#fff"/>
      <path id="Caminho_6" data-name="Caminho 6" d="M542.117,1.014A160.69,160.69,0,0,1,560.131,13.4c1.3,1.028,2.593,2.146,3.889,3.174.268.223.536.4.8.626a.285.285,0,0,0,.268,0,.246.246,0,0,0,.134-.223,19.865,19.865,0,0,0,0-3.263C562.5,10.982,551.28,2.847,546.274-.014c-1.654,0-3.352-.045-5.1.045-.089,0-.179.045-.179.134V.21c0,.045.045.089.045.134Z" transform="translate(-299.184 0.025)" fill="#fff"/>
      <path id="Caminho_7" data-name="Caminho 7" d="M186.256,261.342c.268.358.492.715.715,1.073a9.875,9.875,0,0,0,1.475,2.1c.313.358.626.76.894,1.117,1.073,1.341,2.146,2.682,3.263,4.023a4.456,4.456,0,0,0,.894.939,28.2,28.2,0,0,1,3.174,2.95c.67.67,1.341,1.386,2.056,2.011,2.146,1.922,4.336,3.8,6.615,5.543a58.189,58.189,0,0,0,8.314,5.5,30.351,30.351,0,0,0,5.408,2.324,19.017,19.017,0,0,0,4.47.983,26.692,26.692,0,0,0,9.029-.715,48.317,48.317,0,0,0,8.94-3.174,77.826,77.826,0,0,0,10.146-5.721c2.548-1.7,5.051-3.486,7.6-5.23,1.922-1.341,3.844-2.727,5.766-4.068a77.819,77.819,0,0,1,9.7-5.721,56.778,56.778,0,0,1,9.923-3.8,14.213,14.213,0,0,1,5.14-.536c1.743.134,3.442.313,5.185.447,2.1.179,4.2.313,6.3.492l2.011.134a49.951,49.951,0,0,0,6.347.179,16.392,16.392,0,0,0,9.476-3.755A19.842,19.842,0,0,0,322.361,255c2.369-3.084,4.649-6.258,6.749-9.521a62.563,62.563,0,0,0,4.425-7.912,36.868,36.868,0,0,0,3.4-13.052,32.928,32.928,0,0,0-.224-6.3,36.535,36.535,0,0,0-1.564-6.883q-1.341-4.023-3.084-7.912a76.368,76.368,0,0,1-3.665-9.834c-.8-2.727-1.654-5.408-2.548-8.09a52.651,52.651,0,0,0-2.905-7.2,36.265,36.265,0,0,0-16.494-16.538,44.573,44.573,0,0,0-17.432-4.514,58.059,58.059,0,0,0-9.655.179,5.7,5.7,0,0,1-.849.045,67.737,67.737,0,0,1-9.521-.223c-2.324-.268-4.649-.626-6.973-1.117a68.7,68.7,0,0,1-9.834-2.861c-4.872-1.743-9.789-3.352-14.84-4.649a41.362,41.362,0,0,0-11.711-1.341,32.957,32.957,0,0,0-7.241,1.073,35.615,35.615,0,0,0-12.068,5.677,4.492,4.492,0,0,1-1.073.715,5.923,5.923,0,0,0-1.7,1.3c-2.19,2.19-4.38,4.336-6.437,6.615a74.265,74.265,0,0,0-11,15.823,88.428,88.428,0,0,0-8,22.93c-.447,2.19-.8,4.425-1.252,6.66-.67,3.621-1.3,7.286-1.743,10.951a80.416,80.416,0,0,0-.626,9.252,59.574,59.574,0,0,0,.358,6.3A46.233,46.233,0,0,0,176.2,241.5a56.345,56.345,0,0,0,7.152,15.644C184.378,258.661,185.317,260,186.256,261.342Zm-7.6-22.93a39.583,39.583,0,0,1-.76-5.14,40.247,40.247,0,0,1-.223-5.185,59.25,59.25,0,0,1,.492-7.465c.492-4.291,1.252-8.537,2.011-12.828.4-2.19.76-4.336,1.252-6.526a87.993,87.993,0,0,1,7.152-20.516,71.016,71.016,0,0,1,11.89-16.941c1.609-1.7,3.308-3.352,4.961-5.051a7.864,7.864,0,0,1,1.788-1.43,11.068,11.068,0,0,0,1.162-.849,31.828,31.828,0,0,1,21.455-6.034,54.419,54.419,0,0,1,8.94,1.7c4.246,1.162,8.448,2.548,12.6,4.023a76.427,76.427,0,0,0,9.789,2.861c2.145.447,4.336.849,6.526,1.117a55.764,55.764,0,0,0,8.18.447c2.011-.045,4.023-.223,6.034-.358a46.565,46.565,0,0,1,7.062,0q1.944.134,3.889.4a39.768,39.768,0,0,1,15.465,5.587,33.518,33.518,0,0,1,12.2,13.722,56.576,56.576,0,0,1,3.129,8.046c.8,2.5,1.564,5.051,2.324,7.554a74.322,74.322,0,0,0,3.263,8.627c.983,2.145,1.877,4.291,2.682,6.526a40.086,40.086,0,0,1,1.743,6.526,30.314,30.314,0,0,1,.224,8.761,35.268,35.268,0,0,1-3.129,10.593,56,56,0,0,1-3.531,6.437c-2.19,3.486-4.649,6.839-7.152,10.146a16.784,16.784,0,0,1-2.905,2.995,13.464,13.464,0,0,1-6.526,2.861,23.793,23.793,0,0,1-5.051.134c-.8-.089-1.609-.134-2.458-.179-2.056-.179-4.112-.313-6.168-.492-1.475-.134-2.995-.268-4.47-.358-.358-.045-.76-.045-1.162-.089a17.886,17.886,0,0,0-7.688.581,61.345,61.345,0,0,0-13.141,5.453,94.919,94.919,0,0,0-8.4,5.274l-6.839,4.827c-2.548,1.788-5.14,3.576-7.822,5.185A65.493,65.493,0,0,1,237.3,284.5a41.93,41.93,0,0,1-6.884,2.056A23.548,23.548,0,0,1,225.1,287a20.448,20.448,0,0,1-5.9-1.252,35.8,35.8,0,0,1-5.453-2.592,65.141,65.141,0,0,1-7.643-5.364c-1.7-1.386-3.4-2.816-5.051-4.291a26.506,26.506,0,0,1-1.967-1.922,30.125,30.125,0,0,0-3.486-3.263,3.361,3.361,0,0,1-.67-.715c-1.52-1.877-3.039-3.71-4.559-5.587a3.914,3.914,0,0,1-.358-.447c-.894-1.609-2.011-3.039-3.039-4.559a57.136,57.136,0,0,1-4.291-7.33,45.77,45.77,0,0,1-4.023-11.264Z" transform="translate(-96.502 -81.422)" fill="#fff"/>
      <path id="Caminho_8" data-name="Caminho 8" d="M251.745,263.035c1.654,2.414,3.665,4.47,5.543,6.7.939.849,1.833,1.788,2.682,2.727a10.377,10.377,0,0,0,1.967,1.743,16.82,16.82,0,0,1,1.386,1.117,58.915,58.915,0,0,0,9.521,6.7,26.245,26.245,0,0,0,5.1,2.324,17.019,17.019,0,0,0,4.47.983,22.879,22.879,0,0,0,6.034-.4,37.891,37.891,0,0,0,6.213-1.788,62.276,62.276,0,0,0,9.029-4.38l.536-.313h.045c1.564-.894,3.039-1.833,4.6-2.727l1.207-.715c1.654-.939,3.308-1.877,5.006-2.727a59.55,59.55,0,0,1,7.6-3.218,10.5,10.5,0,0,1,2.861-.581c1.207-.089,2.458-.179,3.665-.358,1.073-.134,2.146-.313,3.218-.492,1.609-.268,3.218-.536,4.783-.849a15.011,15.011,0,0,0,8-4.425,19.787,19.787,0,0,0,1.922-2.414c1.475-2.19,2.861-4.47,4.157-6.794a49.791,49.791,0,0,0,2.28-4.962,31.249,31.249,0,0,0,2.235-11.621,24.341,24.341,0,0,0-.849-6.481,38.282,38.282,0,0,0-2.145-6.258c-1.117-2.592-2.056-5.23-2.95-7.867-.626-1.877-1.3-3.71-2.056-5.543a34.834,34.834,0,0,0-5.811-9.342,22.427,22.427,0,0,0-2.324-2.28,12.187,12.187,0,0,0-5.408-2.592,22.529,22.529,0,0,0-4.246-.536c-1.564-.045-3.129-.045-4.738-.089-.492,0-.983,0-1.475-.045a37.154,37.154,0,0,1-5.5-.939c-2.995-.67-5.9-1.52-8.806-2.369-3.218-.983-6.392-1.967-9.61-2.905a75.1,75.1,0,0,0-12.516-2.637,26.822,26.822,0,0,0-7.33.179,22.87,22.87,0,0,0-13.275,7.107,14.62,14.62,0,0,0-1.341,1.564c-.581.849-1.207,1.654-1.788,2.5-.8,1.162-1.654,2.324-2.369,3.531a47.513,47.513,0,0,0-4.6,10.191,104.557,104.557,0,0,0-2.995,11.711c-.313,1.654-.626,3.308-.983,4.917a49.435,49.435,0,0,1-2.1,6.615c-.715,1.877-1.43,3.755-2.1,5.677a30.636,30.636,0,0,0-1.43,6.3,20.441,20.441,0,0,0,.8,8.224A29.089,29.089,0,0,0,251.745,263.035Zm69.282,3.308a67.36,67.36,0,0,0-8.627,3.8c-2.324,1.207-4.559,2.548-6.794,3.889-2.592,1.564-5.14,3.039-7.867,4.38l-.536.268a38.787,38.787,0,0,1-6.258,2.28,23.3,23.3,0,0,1-5.23.894,13.547,13.547,0,0,1-4.827-.626,19.448,19.448,0,0,1-4.112-1.7c-1.162-.626-2.369-1.3-3.486-2.011a50.824,50.824,0,0,1-6.794-5.1c-.447-.4-.894-.715-1.341-1.073a7.331,7.331,0,0,1-1.073-.939c-1.654-1.788-3.4-3.531-5.006-5.364a31.144,31.144,0,0,1-2.637-3.263,25.606,25.606,0,0,1-3.755-7.286,17.169,17.169,0,0,1-.536-7.956,32.128,32.128,0,0,1,1.43-5.408c.581-1.654,1.207-3.352,1.877-5.006a55.1,55.1,0,0,0,2.592-9.3c.671-3.755,1.564-7.42,2.592-11.085a46.771,46.771,0,0,1,2.369-6.481,40.183,40.183,0,0,1,4.023-7.152c.894-1.252,1.788-2.5,2.727-3.71a18.745,18.745,0,0,1,6.526-5.14,20.125,20.125,0,0,1,9.118-2.011,30.155,30.155,0,0,1,5.677.536,99.1,99.1,0,0,1,12.426,3.129c3.531,1.117,7.062,2.19,10.638,3.174,2.146.581,4.291,1.117,6.437,1.475a23.974,23.974,0,0,0,4.738.447,54.45,54.45,0,0,1,6.034.223,16.914,16.914,0,0,1,2.548.447,9.675,9.675,0,0,1,4.246,2.324c.581.581,1.162,1.162,1.7,1.788a31.845,31.845,0,0,1,5.051,8.359c.581,1.52,1.162,3.039,1.7,4.6.939,2.771,1.922,5.543,3.084,8.224a39.353,39.353,0,0,1,1.7,4.872,23.9,23.9,0,0,1,.939,7.107,24.19,24.19,0,0,1-1.207,7.107,40.657,40.657,0,0,1-2.28,5.587,66.854,66.854,0,0,1-4.559,7.688,13.467,13.467,0,0,1-.983,1.252,11.606,11.606,0,0,1-6.928,4.112c-2.861.581-5.766,1.073-8.671,1.386a10.168,10.168,0,0,1-1.162.089,16.337,16.337,0,0,0-4.6.8,6.167,6.167,0,0,1-.894.358Z" transform="translate(-136.559 -103.139)" fill="#fff"/>
      <path id="Caminho_9" data-name="Caminho 9" d="M400.128,260.6a26.808,26.808,0,0,0-2.056-11.532,22.894,22.894,0,0,0-3.174-5.453,9.631,9.631,0,0,0-4.559-3.174,12.279,12.279,0,0,0-3.084-.67c-1.609-.134-3.263-.268-4.872-.268a43.879,43.879,0,0,1-4.872-.268,5.541,5.541,0,0,1-1.922-.492c-.626-.268-1.207-.581-1.788-.894-.76-.4-1.475-.894-2.235-1.3a11.552,11.552,0,0,0-2.637-1.162,6.58,6.58,0,0,0-4.246.045,14.418,14.418,0,0,0-3.576,1.877,12.42,12.42,0,0,0-3.174,3.308,8.331,8.331,0,0,0-1.3,3.352,15.6,15.6,0,0,0,1.073,8.895c.179.447.4.894.581,1.341a4.509,4.509,0,0,1,.223,2.548,5.541,5.541,0,0,1-1.073,2.324,18.535,18.535,0,0,1-1.207,1.43c-.76.715-1.564,1.43-2.324,2.146-.715.67-1.43,1.3-2.1,1.967a10.43,10.43,0,0,0-1.877,2.548,7.723,7.723,0,0,0-.67,5.721,9.231,9.231,0,0,0,1.3,2.861,16.343,16.343,0,0,0,2.458,2.816,20.02,20.02,0,0,0,4.157,2.816,42.657,42.657,0,0,0,5.677,2.458,36.818,36.818,0,0,0,11,2.056l2.592-.179a24.392,24.392,0,0,0,8.09-1.967A26.759,26.759,0,0,0,400.128,260.6Zm-33.7,21.142a39.965,39.965,0,0,1-7.777-2.995,17.442,17.442,0,0,1-3.71-2.5,10.466,10.466,0,0,1-2.235-2.637,5.207,5.207,0,0,1-.8-2.592,4.916,4.916,0,0,1,.581-2.5,7.734,7.734,0,0,1,1.341-1.833c.626-.67,1.3-1.252,1.967-1.877.894-.8,1.788-1.609,2.637-2.458A9.97,9.97,0,0,0,361.464,256a7.321,7.321,0,0,0-.492-2.95c-.179-.492-.4-.983-.626-1.475a11.7,11.7,0,0,1-.983-4.738v-1.3a5.887,5.887,0,0,1,1.073-3.4,10.078,10.078,0,0,1,5.453-4.023,2.861,2.861,0,0,1,1.833.045c.492.179.983.358,1.475.581a16.613,16.613,0,0,1,1.52.849c.492.313.983.581,1.475.894a12.52,12.52,0,0,0,6.392,1.877l6.168.268a16.594,16.594,0,0,1,2.995.313c.581.134,1.117.268,1.654.447a6.312,6.312,0,0,1,2.995,2.146,19.573,19.573,0,0,1,2.369,3.933,22.648,22.648,0,0,1,2.146,8.94c0,9.342-4.291,16.628-10.549,20.74a22.177,22.177,0,0,1-8.94,3.352A27.848,27.848,0,0,1,366.426,281.744Z" transform="translate(-192.997 -129.983)" fill="#fff"/>
      <path id="Caminho_10" data-name="Caminho 10" d="M31.448,640.068c-3.174-2.727-7.6-4.068-13.32-4.068H2.975a1.416,1.416,0,0,0-1.028.4A1.358,1.358,0,0,0,1.5,637.43v37.9a1.519,1.519,0,0,0,1.475,1.475H18.441c5.766,0,10.146-1.3,13.141-3.933s4.6-6.615,4.827-12.024c.045-1.073.045-2.548.045-4.425s0-3.352-.045-4.47C36.23,646.772,34.577,642.794,31.448,640.068Zm-5.721,20.65c-.089,2.682-.715,4.649-1.922,5.855s-3.084,1.833-5.677,1.833H12V644.359h5.811c2.548,0,4.515.626,5.811,1.877A7.9,7.9,0,0,1,25.682,652c.089,1.073.134,2.548.134,4.336s0,3.263-.089,4.38Z" transform="translate(-0.83 -351.709)" fill="#fff"/>
      <path id="Caminho_11" data-name="Caminho 11" d="M111.93,637.6a2.308,2.308,0,0,0-.76-1.162,2.34,2.34,0,0,0-1.52-.447h-8.627a2.34,2.34,0,0,0-1.52.447,2.516,2.516,0,0,0-.76,1.162L85.022,675.058a1.1,1.1,0,0,0-.045.536,1.263,1.263,0,0,0,1.207,1.207h7.152a1.862,1.862,0,0,0,1.922-1.207l2.235-5.945h15.555l2.324,5.945a1.757,1.757,0,0,0,1.877,1.207H124.4a1.248,1.248,0,0,0,.894-.358,1.221,1.221,0,0,0,.358-.849l-.134-.536ZM99.951,661.2l5.408-15.421,5.408,15.421Z" transform="translate(-46.984 -351.701)" fill="#fff"/>
      <path id="Caminho_12" data-name="Caminho 12" d="M204.626,644.761a1.491,1.491,0,0,0,.4-1.028v-6.258A1.432,1.432,0,0,0,203.687,636H172.175a1.416,1.416,0,0,0-1.028.4,1.358,1.358,0,0,0-.447,1.028v6.258a1.519,1.519,0,0,0,1.475,1.475h10.37v30.216a1.519,1.519,0,0,0,1.475,1.475h7.688a1.3,1.3,0,0,0,1.028-.447,1.416,1.416,0,0,0,.4-1.028V645.163h10.37A1.558,1.558,0,0,0,204.626,644.761Z" transform="translate(-94.4 -351.709)" fill="#fff"/>
      <path id="Caminho_13" data-name="Caminho 13" d="M269.1,637.6a2.308,2.308,0,0,0-.76-1.162,2.34,2.34,0,0,0-1.52-.447h-8.671a2.34,2.34,0,0,0-1.52.447,2.516,2.516,0,0,0-.76,1.162l-13.722,37.457a2.175,2.175,0,0,0-.045.536,1.263,1.263,0,0,0,1.207,1.207h7.152a1.81,1.81,0,0,0,1.922-1.207l2.235-5.945h15.6l2.28,5.99a1.757,1.757,0,0,0,1.877,1.207h7.152a1.248,1.248,0,0,0,.894-.358,1.221,1.221,0,0,0,.358-.849l-.134-.536Zm-12.024,23.6,5.408-15.421,5.408,15.421Z" transform="translate(-133.886 -351.701)" fill="#fff"/>
      <path id="Caminho_14" data-name="Caminho 14" d="M369.75,655.254a8.983,8.983,0,0,0,3.621-3.218,9.674,9.674,0,0,0,1.52-5.677,10.008,10.008,0,0,0-2.995-7.465c-1.967-1.967-4.917-2.995-8.761-2.995H347.893a1.443,1.443,0,0,0-.939.358,1.563,1.563,0,0,0-.358.983v38.217a1.206,1.206,0,0,0,1.117,1.3h15.823a12.74,12.74,0,0,0,6.526-1.609,10.558,10.558,0,0,0,4.157-4.246,12.021,12.021,0,0,0,1.43-5.677,10.887,10.887,0,0,0-1.7-6.079A10.666,10.666,0,0,0,369.75,655.254Zm-19.444-15.823h12.068q4.291,0,6.571,1.743a6.232,6.232,0,0,1,2.235,5.185,6.816,6.816,0,0,1-2.235,5.408q-2.213,1.877-6.571,1.877H350.306Zm19.31,31.6a9.443,9.443,0,0,1-6.66,2.235h-12.65V657.176h12.65a9.519,9.519,0,0,1,6.66,2.235,7.554,7.554,0,0,1,2.414,5.811A7.73,7.73,0,0,1,369.616,671.033Z" transform="translate(-191.673 -351.654)" fill="#fff"/>
      <path id="Caminho_15" data-name="Caminho 15" d="M434.31,636h-1.117a1.206,1.206,0,0,0-1.3,1.117v38.44a1.206,1.206,0,0,0,1.117,1.3h1.3a1.228,1.228,0,0,0,1.3-1.3V637.293a1.244,1.244,0,0,0-.358-.939A1.31,1.31,0,0,0,434.31,636Z" transform="translate(-238.846 -351.706)" fill="#fff"/>
      <path id="Caminho_16" data-name="Caminho 16" d="M485.424,673.323H462.538L485.424,640.6c.223-.4.4-.715.536-1.028a2.268,2.268,0,0,0,.179-1.073v-1.162A1.207,1.207,0,0,0,485.066,636H459.678a1.443,1.443,0,0,0-.939.358,1.562,1.562,0,0,0-.358.983v.894a1.244,1.244,0,0,0,.358.939,1.443,1.443,0,0,0,.939.358h22.036l-22.975,32.63c-.045.045-.179.268-.447.626a2.5,2.5,0,0,0-.4,1.565v1.162a1.562,1.562,0,0,0,.358.983,1.053,1.053,0,0,0,.939.358h26.238a1.563,1.563,0,0,0,.983-.358,1.053,1.053,0,0,0,.358-.939v-.894a1.207,1.207,0,0,0-1.073-1.341Z" transform="translate(-253.217 -351.709)" fill="#fff"/>
      <path id="Caminho_17" data-name="Caminho 17" d="M562.007,673.68a1.345,1.345,0,0,0-.983-.358H538.138L561.024,640.6c.224-.4.4-.715.536-1.028a2.268,2.268,0,0,0,.179-1.073v-1.162A1.207,1.207,0,0,0,560.666,636H535.278a1.443,1.443,0,0,0-.939.358,1.562,1.562,0,0,0-.358.983v.894a1.244,1.244,0,0,0,.358.939,1.443,1.443,0,0,0,.939.358h22.036l-22.975,32.63c-.045.045-.179.268-.447.626a2.5,2.5,0,0,0-.4,1.565v1.162a1.562,1.562,0,0,0,.358.983,1.053,1.053,0,0,0,.939.358h26.193a1.563,1.563,0,0,0,.983-.358,1.053,1.053,0,0,0,.358-.939v-.894A1.309,1.309,0,0,0,562.007,673.68Z" transform="translate(-295.026 -351.709)" fill="#fff"/>
      <path id="Caminho_18" data-name="Caminho 18" d="M210.679,265.183a70.321,70.321,0,0,1,17.835-8,30.893,30.893,0,0,1,5.364-1.117,14.96,14.96,0,0,1,2.458-.045c1.43.134,2.861.358,4.291.626,2.771.536,5.587,1.073,8.359,1.564l8.627,1.609c1.877.358,3.8.67,5.677.849a24.766,24.766,0,0,0,6.3-.268,19.229,19.229,0,0,0,9.118-4.336,25.16,25.16,0,0,0,3.71-3.844c2.414-3.039,4.827-6.124,7.152-9.208a93.03,93.03,0,0,0,5.99-8.85,57.013,57.013,0,0,0,4.827-10.146,41.973,41.973,0,0,0,2.414-11.979,42.539,42.539,0,0,0-.939-10.906A60.932,60.932,0,0,0,299,191.923c-1.117-2.905-2.414-5.766-3.71-8.582a69.143,69.143,0,0,1-2.592-6.571c-.313-.849-.358-.983.492-1.52a2.593,2.593,0,0,0,.536-.447,5.165,5.165,0,0,0,.715-6.615,5.288,5.288,0,0,0-1.788-1.654l-.134-.268a5.146,5.146,0,0,0-3.665-2.28c-.4-1.43-.849-2.816-1.3-4.246-1.162-3.621-6.168-18.147-7.956-21.544a48.039,48.039,0,0,0-9.7-12.918,46.66,46.66,0,0,0-9.029-7.465,50.249,50.249,0,0,0-14.214-6.168,55.76,55.76,0,0,0-7.6-1.52c-1.52-.179-3.039-.4-4.6-.447-1.43-.089-2.861-.134-4.336-.134-2.011,0-4.023.045-6.034.179-1.877.134-3.71.358-5.587.581-2.458.268-4.872.447-7.33.492a76.244,76.244,0,0,1-18.55-2.146,88.661,88.661,0,0,1-11.666-3.755c-4.917-1.922-9.834-3.8-14.884-5.5a74.77,74.77,0,0,0-10.862-2.905A46.35,46.35,0,0,0,142.291,96a47.273,47.273,0,0,0-7.509,1.386,48.954,48.954,0,0,0-12.292,5.23,11.144,11.144,0,0,1-1.922.983,2.649,2.649,0,0,0-.849.492,31.773,31.773,0,0,0-3.039,2.458c-1.252,1.117-2.5,2.235-3.755,3.4-2.19,2.011-4.38,4.068-6.437,6.213a102.584,102.584,0,0,0-26.417,48.81c-.67,2.995-1.252,6.034-1.7,9.074-.313,2.145-.536,4.291-.715,6.437-.268,2.905-.358,5.855-.358,8.761,0,2.95.134,5.855.358,8.761.268,3.263.715,6.481,1.3,9.7.939,5.1,5.945,21.142,7.643,26.014a94.141,94.141,0,0,0,8.18,17.79c.8,1.341,1.564,2.637,2.324,3.978a11.8,11.8,0,0,1,.8,1.7,6.035,6.035,0,0,0,.849,1.475l3.755,4.962c1.073,1.43,2.1,2.905,3.218,4.246s2.458,2.592,3.71,3.844l2.235,2.235A149.583,149.583,0,0,0,125.082,286.1a74.256,74.256,0,0,0,9.252,6.436,46.7,46.7,0,0,0,7.42,3.486,26.6,26.6,0,0,0,11.219,1.52,38.833,38.833,0,0,0,8.18-1.52,65.413,65.413,0,0,0,11.309-4.649,112.017,112.017,0,0,0,12.873-7.956c3.442-2.458,6.794-5.006,10.146-7.6,1.743-1.341,3.486-2.682,5.274-4.023a1.387,1.387,0,0,1,.8-.4,6.155,6.155,0,0,0,1.073.626,5.213,5.213,0,0,0,7.554-5.453c-.045-.268-.134-.581-.179-.849a.508.508,0,0,1,.134-.358A1.269,1.269,0,0,0,210.679,265.183Zm-96.995,6.571c-.447-.447-.849-.894-1.3-1.341a40.491,40.491,0,0,1-4.6-5.364c-1.386-1.922-2.816-3.755-4.246-5.632a8.514,8.514,0,0,1-1.028-1.743,11.546,11.546,0,0,0-.849-1.654c-.8-1.386-1.564-2.771-2.369-4.112a96.839,96.839,0,0,1-9.029-20.7c-1.341-4.336-6.034-19.712-6.749-24.182-.313-1.788-.492-3.621-.715-5.408a99.807,99.807,0,0,1-.536-12.65c.045-2.592.223-5.185.492-7.777.134-1.609.358-3.263.581-4.872a96.764,96.764,0,0,1,2.1-10.728,98.781,98.781,0,0,1,12.694-29.5,102,102,0,0,1,15.466-18.773c2.548-2.414,5.14-4.738,7.733-7.107.581-.492,1.207-.939,1.833-1.43a2.485,2.485,0,0,1,.76-.4,11.145,11.145,0,0,0,1.922-.983,48.153,48.153,0,0,1,10.772-4.738,45.367,45.367,0,0,1,6.928-1.43,44.809,44.809,0,0,1,9.789-.134,52.38,52.38,0,0,1,10.146,2.056c4.961,1.52,9.834,3.308,14.661,5.14,2.458.939,4.917,1.922,7.42,2.816a76.321,76.321,0,0,0,13.365,3.486c2.19.358,4.38.67,6.571.849a86.665,86.665,0,0,0,11.8.179c1.475-.045,2.95-.268,4.47-.447,1.654-.179,3.352-.358,5.006-.492s3.442-.179,5.185-.179a64.883,64.883,0,0,1,7.777.492,56.332,56.332,0,0,1,10.817,2.369,46.745,46.745,0,0,1,14.08,7.42c1.117.894,2.19,1.788,3.218,2.771a45.126,45.126,0,0,1,7.554,10.951c1.341,2.727,6.124,16.538,7.062,19.4.67,2.1,1.3,4.2,1.967,6.347.089.313.134.67.223,1.028l-.536.67a5.171,5.171,0,0,0-1.073,4.068,4.911,4.911,0,0,0,2.5,3.665,5.4,5.4,0,0,0,2.324,2.145A79.242,79.242,0,0,0,291,183.654c1.341,2.905,2.637,5.855,3.755,8.895a53.2,53.2,0,0,1,2.235,7.465,39.352,39.352,0,0,1,.894,9.163,38.732,38.732,0,0,1-2.816,13.454,50.449,50.449,0,0,1-3.755,7.643,96.821,96.821,0,0,1-5.9,8.761c-2.369,3.218-4.872,6.347-7.33,9.431a21.873,21.873,0,0,1-3.665,3.665,16.2,16.2,0,0,1-9.7,3.621,28.634,28.634,0,0,1-6.749-.492c-3.352-.67-6.7-1.252-10.057-1.877-2.771-.536-5.543-1.073-8.358-1.564-1.341-.224-2.637-.492-3.978-.626a19.882,19.882,0,0,0-6.883.4,69.873,69.873,0,0,0-11.979,4.023,76.474,76.474,0,0,0-9.3,4.872,11.3,11.3,0,0,1-.983.581.746.746,0,0,1-.8.045,6.339,6.339,0,0,0-.8-.358,5.159,5.159,0,0,0-6.615,3.129,3.291,3.291,0,0,0-.179.626,3.666,3.666,0,0,0-.089.983v1.341c-.089.089-.179.223-.268.313-3.8,2.905-7.554,5.811-11.353,8.671-3.039,2.324-6.168,4.559-9.431,6.615A83.549,83.549,0,0,1,164.6,289.1a56.757,56.757,0,0,1-8.448,2.816,33.485,33.485,0,0,1-6.973.894,23.167,23.167,0,0,1-8.359-1.43,41.733,41.733,0,0,1-6.258-2.905,68.313,68.313,0,0,1-9.3-6.347,147.791,147.791,0,0,1-11.577-10.37ZM290.331,169.217a2.145,2.145,0,0,1-2.1,2.19h-.313v-.268a2.167,2.167,0,0,1,2.145-2.1h.268c0,.045.045.134,0,.179ZM202.9,267.552a2.128,2.128,0,0,1,2.056-2.146h.313v.313a2.089,2.089,0,0,1-2.1,2.056h-.223a.486.486,0,0,1-.045-.223Z" transform="translate(-42.748 -52.946)" fill="#fff"/>
    </g>
  </g>
</svg>
